SplineFontDB: 3.0
FontName: Digital-7
FullName: Digital-7
FamilyName: Digital-7
Weight: Book
Copyright: Created by Sizenko Alexander. (c) 2008 Style-7. All rights reserved. http://www.styleseven.com
Version: 1.020 April 07 2011
ItalicAngle: 0
UnderlinePosition: -155
UnderlineWidth: 70
Ascent: 880
Descent: 220
InvalidEm: 0
sfntRevision: 0x00010000
LayerCount: 2
Layer: 0 1 "+BBcEMAQ0BD0EOAQ5 +BD8EOwQwBD0A" 1
Layer: 1 1 "+BB8ENQRABDUENAQ9BDgEOQAA +BD8EOwQwBD0A" 0
XUID: [1021 795 -203984499 22810]
StyleMap: 0x0040
FSType: 0
OS2Version: 3
OS2_WeightWidthSlopeOnly: 0
OS2_UseTypoMetrics: 0
CreationTime: 1223007600
ModificationTime: 1486168539
PfmFamily: 17
TTFWeight: 400
TTFWidth: 5
LineGap: 0
VLineGap: 0
Panose: 2 0 0 9 0 0 0 0 0 0
OS2TypoAscent: 800
OS2TypoAOffset: 0
OS2TypoDescent: 200
OS2TypoDOffset: 0
OS2TypoLinegap: 0
OS2WinAscent: 900
OS2WinAOffset: 0
OS2WinDescent: 187
OS2WinDOffset: 0
HheadAscent: 800
HheadAOffset: 0
HheadDescent: 200
HheadDOffset: 0
OS2SubXSize: 700
OS2SubYSize: 650
OS2SubXOff: 0
OS2SubYOff: 143
OS2SupXSize: 700
OS2SupYSize: 650
OS2SupXOff: 0
OS2SupYOff: 453
OS2StrikeYSize: 50
OS2StrikeYPos: 259
OS2CapHeight: 700
OS2XHeight: 700
OS2Vendor: 'ALTS'
OS2CodePages: 00000001.00000000
OS2UnicodeRanges: 80000001.00000000.00000000.00000000
MarkAttachClasses: 1
DEI: 91125
TtTable: prep
PUSHW_1
 130
CALL
PUSHW_1
 120
CALL
PUSHW_1
 110
CALL
PUSHW_1
 100
CALL
PUSHW_1
 90
CALL
PUSHW_1
 80
CALL
PUSHW_1
 70
CALL
PUSHW_1
 60
CALL
PUSHW_1
 50
CALL
PUSHW_1
 40
CALL
PUSHW_1
 30
CALL
PUSHW_1
 20
CALL
PUSHW_1
 10
CALL
NPUSHB
 14
 27
 27
 26
 26
 11
 11
 1
 1
 0
 0
 15
 15
 69
 1
SCANTYPE
PUSHW_1
 511
SCANCTRL
SROUND
RCVT
ROUND[Grey]
WCVTP
RTG
PUSHB_4
 2
 11
 70
 0
CALL
PUSHB_4
 3
 0
 70
 0
CALL
PUSHB_4
 4
 1
 70
 0
CALL
PUSHB_4
 5
 11
 70
 0
CALL
PUSHB_4
 6
 0
 70
 0
CALL
PUSHB_4
 7
 1
 70
 0
CALL
PUSHB_4
 8
 15
 70
 0
CALL
PUSHB_4
 9
 1
 70
 0
CALL
PUSHB_4
 10
 0
 70
 0
CALL
PUSHB_4
 12
 1
 70
 0
CALL
PUSHB_4
 13
 11
 70
 0
CALL
PUSHB_4
 14
 1
 70
 0
CALL
PUSHB_4

StartChar: .notdef
Encoding: 65536 -1 0
Width: 579
Flags: W
LayerCount: 2
Fore
SplineSet
491 0 m 1,0,-1
 131 0 l 1,1,2
 91 10 91 10 81 50 c 1,3,-1
 161 80 l 1,4,-1
 461 80 l 1,5,-1
 491 0 l 1,0,-1
461 640 m 1,6,-1
 162 640 l 1,7,-1
 82 670 l 1,8,9
 92 710 92 710 132 720 c 1,10,-1
 491 720 l 1,11,-1
 461 640 l 1,6,-1
161 100 m 1,12,-1
 81 70 l 1,13,-1
 81 650 l 1,14,-1
 161 620 l 1,15,-1
 161 100 l 1,12,-1
561 50 m 1,16,17
 551 10 551 10 511 0 c 1,18,-1
 481 80 l 1,19,-1
 481 640 l 1,20,-1
 511 720 l 1,21,22
 551 710 551 710 561 670 c 1,23,-1
 561 50 l 1,16,17
EndSplineSet
Validated: 1
EndChar

StartChar: exclam
Encoding: 33 33 4
Width: 579
Flags: W
LayerCount: 2
Fore
SplineSet
137 350 m 1,0,-1
 157 330 l 1,1,-1
 157 160 l 1,2,-1
 77 160 l 1,3,-1
 77 290 l 1,4,-1
 137 350 l 1,0,-1
77 430 m 1,5,-1
 77 640 l 1,6,-1
 107 720 l 1,7,8
 147 710 147 710 157 670 c 1,9,-1
 157 390 l 1,10,-1
 137 370 l 1,11,-1
 77 430 l 1,5,-1
157 0 m 1,12,-1
 77 0 l 1,13,-1
 77 80 l 1,14,-1
 157 80 l 1,15,-1
 157 0 l 1,12,-1
EndSplineSet
Validated: 1
EndChar

StartChar: quotedbl
Encoding: 34 34 5
Width: 579
Flags: W
LayerCount: 2
Fore
SplineSet
153 560 m 1,0,-1
 113 520 l 1,1,-1
 73 560 l 1,2,-1
 73 720 l 1,3,-1
 153 720 l 1,4,-1
 153 560 l 1,0,-1
314 561 m 1,5,-1
 274 521 l 1,6,-1
 234 561 l 1,7,-1
 234 721 l 1,8,-1
 314 721 l 1,9,-1
 314 561 l 1,5,-1
EndSplineSet
Validated: 1
EndChar

StartChar: numbersign
Encoding: 35 35 6
Width: 579
Flags: W
LayerCount: 2
Fore
SplineSet
296 480 m 1,0,-1
 336 440 l 1,1,-1
 296 400 l 1,2,-1
 256 400 l 1,3,-1
 216 440 l 1,4,-1
 256 480 l 1,5,-1
 296 480 l 1,0,-1
296 320 m 1,6,-1
 336 280 l 1,7,-1
 296 240 l 1,8,-1
 256 240 l 1,9,-1
 216 280 l 1,10,-1
 256 320 l 1,11,-1
 296 320 l 1,6,-1
156 380 m 1,12,-1
 196 420 l 1,13,-1
 236 380 l 1,14,-1
 236 340 l 1,15,-1
 196 300 l 1,16,-1
 156 340 l 1,17,-1
 156 380 l 1,12,-1
316 380 m 1,18,-1
 356 420 l 1,19,-1
 396 380 l 1,20,-1
 396 340 l 1,21,-1
 356 300 l 1,22,-1
 316 340 l 1,23,-1
 316 380 l 1,18,-1
156 560 m 1,24,-1
 196 600 l 1,25,-1
 236 560 l 1,26,-1
 236 500 l 1,27,-1
 196 460 l 1,28,-1
 156 500 l 1,29,-1
 156 560 l 1,24,-1
316 560 m 1,30,-1
 356 600 l 1,31,-1
 396 560 l 1,32,-1
 396 500 l 1,33,-1
 356 460 l 1,34,-1
 316 500 l 1,35,-1
 316 560 l 1,30,-1
316 221 m 1,36,-1
 356 261 l 1,37,-1
 396 221 l 1,38,-1
 396 160 l 1,39,-1
 356 120 l 1,40,-1
 316 160 l 1,41,-1
 316 221 l 1,36,-1
156 220 m 1,42,-1
 196 260 l 1,43,-1
 236 220 l 1,44,-1
 236 159 l 1,45,-1
 196 119 l 1,46,-1
 156 159 l 1,47,-1
 156 220 l 1,42,-1
136 320 m 1,48,-1
 176 280 l 1,49,-1
 136 240 l 1,50,-1
 96 240 l 1,51,-1
 56 280 l 1,52,-1
 96 320 l 1,53,-1
 136 320 l 1,48,-1
456 319 m 1,54,-1
 496 279 l 1,55,-1
 456 239 l 1,56,-1
 416 239 l 1,57,-1
 376 279 l 1,58,-1
 416 319 l 1,59,-1
 456 319 l 1,54,-1
456 480 m 1,60,-1
 496 440 l 1,61,-1
 456 400 l 1,62,-1
 416 400 l 1,63,-1
 376 440 l 1,64,-1
 416 480 l 1,65,-1
 456 480 l 1,60,-1
136 479 m 1,66,-1
 176 439 l 1,67,-1
 136 399 l 1,68,-1
 96 399 l 1,69,-1
 56 439 l 1,70,-1
 96 479 l 1,71,-1
 136 479 l 1,66,-1
EndSplineSet
Validated: 1
EndChar

StartChar: dollar
Encoding: 36 36 7
Width: 579
Flags: W
LayerCount: 2
Fore
SplineSet
415 400 m 1,0,-1
 455 360 l 1,1,-1
 415 320 l 1,2,-1
 155 320 l 1,3,-1
 115 360 l 1,4,-1
 155 400 l 1,5,-1
 415 400 l 1,0,-1
475 350 m 1,6,-1
 495 330 l 1,7,-1
 495 50 l 1,8,9
 485 10 485 10 445 0 c 1,10,-1
 415 80 l 1,11,-1
 415 290 l 1,12,-1
 475 350 l 1,6,-1
425 0 m 1,13,-1
 125 0 l 1,14,15
 85 10 85 10 75 50 c 1,16,-1
 155 80 l 1,17,-1
 395 80 l 1,18,-1
 425 0 l 1,13,-1
155 620 m 1,19,-1
 155 430 l 1,20,-1
 95 370 l 1,21,-1
 75 390 l 1,22,-1
 75 650 l 1,23,-1
 155 620 l 1,19,-1
156 640 m 1,24,-1
 76 670 l 1,25,26
 86 710 86 710 126 720 c 1,27,-1
 445 720 l 1,28,29
 485 710 485 710 495 670 c 1,30,-1
 415 640 l 1,31,-1
 156 640 l 1,24,-1
255 750 m 1,32,-1
 255 800 l 1,33,-1
 295 840 l 1,34,-1
 335 800 l 1,35,-1
 335 750 l 1,36,-1
 255 750 l 1,32,-1
255 430 m 1,37,-1
 255 610 l 1,38,-1
 335 610 l 1,39,-1
 335 430 l 1,40,-1
 255 430 l 1,37,-1
255 110 m 1,41,-1
 255 290 l 1,42,-1
 335 290 l 1,43,-1
 335 110 l 1,44,-1
 255 110 l 1,41,-1
335 -30 m 1,45,-1
 335 -80 l 1,46,-1
 295 -120 l 1,47,-1
 255 -80 l 1,48,-1
 255 -30 l 1,49,-1
 335 -30 l 1,45,-1
EndSplineSet
Validated: 1
EndChar

StartChar: percent
Encoding: 37 37 8
Width: 579
Flags: W
LayerCount: 2
Fore
SplineSet
325 478 m 1,0,-1
 444 720 l 1,1,2
 504 720 504 720 524 680 c 1,3,-1
 370 370 l 1,4,-1
 325 370 l 1,5,-1
 325 478 l 1,0,-1
303 242 m 1,6,-1
 184 0 l 1,7,8
 124 0 124 0 104 40 c 1,9,-1
 258 350 l 1,10,-1
 303 350 l 1,11,-1
 303 242 l 1,6,-1
204 640 m 1,12,-1
 144 640 l 1,13,-1
 64 670 l 1,14,15
 74 710 74 710 114 720 c 1,16,-1
 234 720 l 1,17,-1
 204 640 l 1,12,-1
144 620 m 1,18,-1
 144 560 l 1,19,-1
 114 480 l 1,20,21
 74 490 74 490 64 530 c 1,22,-1
 64 650 l 1,23,-1
 144 620 l 1,18,-1
164 560 m 1,24,-1
 224 560 l 1,25,-1
 304 530 l 1,26,27
 294 490 294 490 254 480 c 1,28,-1
 134 480 l 1,29,-1
 164 560 l 1,24,-1
224 580 m 1,30,-1
 224 640 l 1,31,-1
 254 720 l 1,32,33
 294 710 294 710 304 670 c 1,34,-1
 304 550 l 1,35,-1
 224 580 l 1,30,-1
484 100 m 1,36,-1
 484 160 l 1,37,-1
 514 240 l 1,38,39
 554 230 554 230 564 190 c 1,40,-1
 564 70 l 1,41,-1
 484 100 l 1,36,-1
464 160 m 1,42,-1
 404 160 l 1,43,-1
 324 190 l 1,44,45
 334 230 334 230 374 240 c 1,46,-1
 494 240 l 1,47,-1
 464 160 l 1,42,-1
404 140 m 1,48,-1
 404 80 l 1,49,-1
 374 0 l 1,50,51
 334 10 334 10 324 50 c 1,52,-1
 324 170 l 1,53,-1
 404 140 l 1,48,-1
424 80 m 1,54,-1
 484 80 l 1,55,-1
 564 50 l 1,56,57
 554 10 554 10 514 0 c 1,58,-1
 394 0 l 1,59,-1
 424 80 l 1,54,-1
EndSplineSet
Validated: 1
EndChar

StartChar: ampersand
Encoding: 38 38 9
Width: 579
Flags: W
LayerCount: 2
Fore
SplineSet
409 400 m 1,0,-1
 449 360 l 1,1,-1
 409 320 l 1,2,-1
 149 320 l 1,3,-1
 109 360 l 1,4,-1
 149 400 l 1,5,-1
 409 400 l 1,0,-1
469 350 m 1,6,-1
 489 330 l 1,7,-1
 489 100 l 1,8,-1
 439 100 l 1,9,-1
 409 130 l 1,10,-1
 409 290 l 1,11,-1
 469 350 l 1,6,-1
509 0 m 1,12,-1
 119 0 l 1,13,14
 79 10 79 10 69 50 c 1,15,-1
 149 80 l 1,16,-1
 469 80 l 1,17,-1
 529 20 l 1,18,-1
 509 0 l 1,12,-1
69 70 m 1,19,-1
 69 330 l 1,20,-1
 89 350 l 1,21,-1
 149 290 l 1,22,-1
 149 100 l 1,23,-1
 69 70 l 1,19,-1
349 600 m 1,24,-1
 189 600 l 1,25,-1
 109 630 l 1,26,27
 119 670 119 670 159 680 c 1,28,-1
 379 680 l 1,29,-1
 349 600 l 1,24,-1
189 580 m 1,30,-1
 189 470 l 1,31,-1
 129 410 l 1,32,-1
 109 430 l 1,33,-1
 109 610 l 1,34,-1
 189 580 l 1,30,-1
369 470 m 1,35,-1
 369 600 l 1,36,-1
 399 680 l 1,37,38
 439 670 439 670 449 630 c 1,39,-1
 449 430 l 1,40,-1
 429 410 l 1,41,-1
 369 470 l 1,35,-1
489 -20 m 1,42,-1
 489 -70 l 1,43,-1
 469 -90 l 1,44,-1
 409 -30 l 1,45,-1
 409 -20 l 1,46,-1
 489 -20 l 1,42,-1
EndSplineSet
Validated: 1
EndChar

StartChar: quotesingle
Encoding: 39 39 10
Width: 579
Flags: W
LayerCount: 2
Fore
SplineSet
153 560 m 1,0,-1
 113 520 l 1,1,-1
 73 560 l 1,2,-1
 73 720 l 1,3,-1
 153 720 l 1,4,-1
 153 560 l 1,0,-1
EndSplineSet
Validated: 1
EndChar

StartChar: parenleft
Encoding: 40 40 11
Width: 579
Flags: W
LayerCount: 2
Fore
SplineSet
285 640 m 1,0,-1
 175 640 l 1,1,-1
 135 680 l 1,2,-1
 175 720 l 1,3,-1
 285 720 l 1,4,-1
 325 680 l 1,5,-1
 285 640 l 1,0,-1
95 370 m 1,6,-1
 75 390 l 1,7,-1
 75 620 l 1,8,-1
 125 670 l 1,9,-1
 155 640 l 1,10,-1
 155 430 l 1,11,-1
 95 370 l 1,6,-1
325 40 m 1,12,-1
 285 0 l 1,13,-1
 175 0 l 1,14,-1
 135 40 l 1,15,-1
 175 80 l 1,16,-1
 285 80 l 1,17,-1
 325 40 l 1,12,-1
155 290 m 1,18,-1
 155 80 l 1,19,-1
 125 50 l 1,20,-1
 75 100 l 1,21,-1
 75 330 l 1,22,-1
 95 350 l 1,23,-1
 155 290 l 1,18,-1
EndSplineSet
Validated: 1
EndChar

StartChar: parenright
Encoding: 41 41 12
Width: 579
Flags: W
LayerCount: 2
Fore
SplineSet
99 80 m 1,0,-1
 209 80 l 1,1,-1
 249 40 l 1,2,-1
 209 0 l 1,3,-1
 99 0 l 1,4,-1
 59 40 l 1,5,-1
 99 80 l 1,0,-1
289 350 m 1,6,-1
 309 330 l 1,7,-1
 309 100 l 1,8,-1
 259 50 l 1,9,-1
 229 80 l 1,10,-1
 229 290 l 1,11,-1
 289 350 l 1,6,-1
59 680 m 1,12,-1
 99 720 l 1,13,-1
 209 720 l 1,14,-1
 249 680 l 1,15,-1
 209 640 l 1,16,-1
 99 640 l 1,17,-1
 59 680 l 1,12,-1
229 430 m 1,18,-1
 229 640 l 1,19,-1
 259 670 l 1,20,-1
 309 620 l 1,21,-1
 309 390 l 1,22,-1
 289 370 l 1,23,-1
 229 430 l 1,18,-1
EndSplineSet
Validated: 1
EndChar

StartChar: asterisk
Encoding: 42 42 13
Width: 579
Flags: W
LayerCount: 2
Fore
SplineSet
186 430 m 1,0,-1
 186 510 l 1,1,-1
 226 550 l 1,2,-1
 266 510 l 1,3,-1
 266 430 l 1,4,-1
 336 470 l 1,5,-1
 391 455 l 1,6,-1
 376 400 l 1,7,-1
 307 360 l 1,8,-1
 376 320 l 1,9,-1
 391 265 l 1,10,-1
 336 250 l 1,11,-1
 266 290 l 1,12,-1
 266 210 l 1,13,-1
 226 170 l 1,14,-1
 186 210 l 1,15,-1
 186 290 l 1,16,-1
 116 250 l 1,17,-1
 61 265 l 1,18,-1
 76 320 l 1,19,-1
 145 360 l 1,20,-1
 76 400 l 1,21,-1
 61 455 l 1,22,-1
 116 470 l 1,23,-1
 186 430 l 1,0,-1
EndSplineSet
Validated: 1
EndChar

StartChar: plus
Encoding: 43 43 14
Width: 579
Flags: W
LayerCount: 2
Fore
SplineSet
183 400 m 1,0,-1
 183 490 l 1,1,-1
 223 530 l 1,2,-1
 263 490 l 1,3,-1
 263 400 l 1,4,-1
 353 400 l 1,5,-1
 393 360 l 1,6,-1
 353 320 l 1,7,-1
 263 320 l 1,8,-1
 263 230 l 1,9,-1
 223 190 l 1,10,-1
 183 230 l 1,11,-1
 183 320 l 1,12,-1
 93 320 l 1,13,-1
 53 360 l 1,14,-1
 93 400 l 1,15,-1
 183 400 l 1,0,-1
EndSplineSet
Validated: 1
EndChar

StartChar: comma
Encoding: 44 44 15
Width: 579
Flags: W
LayerCount: 2
Fore
SplineSet
161 -80 m 1,0,-1
 121 -120 l 1,1,-1
 81 -80 l 1,2,-1
 81 80 l 1,3,-1
 161 80 l 1,4,-1
 161 -80 l 1,0,-1
EndSplineSet
Validated: 1
EndChar

StartChar: hyphen
Encoding: 45 45 16
Width: 579
Flags: W
LayerCount: 2
Fore
SplineSet
369 400 m 1,0,-1
 409 360 l 1,1,-1
 369 320 l 1,2,-1
 109 320 l 1,3,-1
 69 360 l 1,4,-1
 109 400 l 1,5,-1
 369 400 l 1,0,-1
EndSplineSet
Validated: 1
EndChar

StartChar: period
Encoding: 46 46 17
Width: 0
Flags: W
LayerCount: 2
Fore
SplineSet
40 0 m 5,0,-1
 -40 0 l 5,1,-1
 -40 80 l 5,2,-1
 40 80 l 5,3,-1
 40 0 l 5,0,-1
EndSplineSet
Validated: 1
EndChar

StartChar: slash
Encoding: 47 47 18
Width: 579
Flags: W
LayerCount: 2
Fore
SplineSet
274 478 m 1,0,-1
 393 720 l 1,1,2
 453 720 453 720 473 680 c 1,3,-1
 319 370 l 1,4,-1
 274 370 l 1,5,-1
 274 478 l 1,0,-1
252 242 m 1,6,-1
 133 0 l 1,7,8
 73 0 73 0 53 40 c 1,9,-1
 207 350 l 1,10,-1
 252 350 l 1,11,-1
 252 242 l 1,6,-1
EndSplineSet
Validated: 1
EndChar

StartChar: zero
Encoding: 48 48 19
Width: 579
Flags: W
LayerCount: 2
Fore
SplineSet
479 350 m 1,0,-1
 499 330 l 1,1,-1
 499 50 l 1,2,3
 489 10 489 10 449 0 c 1,4,-1
 419 80 l 1,5,-1
 419 290 l 1,6,-1
 479 350 l 1,0,-1
429 0 m 1,7,-1
 129 0 l 1,8,9
 89 10 89 10 79 50 c 1,10,-1
 159 80 l 1,11,-1
 399 80 l 1,12,-1
 429 0 l 1,7,-1
79 70 m 1,13,-1
 79 330 l 1,14,-1
 99 350 l 1,15,-1
 159 290 l 1,16,-1
 159 100 l 1,17,-1
 79 70 l 1,13,-1
399 640 m 1,18,-1
 160 640 l 1,19,-1
 80 670 l 1,20,21
 90 710 90 710 130 720 c 1,22,-1
 429 720 l 1,23,-1
 399 640 l 1,18,-1
159 620 m 1,24,-1
 159 430 l 1,25,-1
 99 370 l 1,26,-1
 79 390 l 1,27,-1
 79 650 l 1,28,-1
 159 620 l 1,24,-1
419 430 m 1,29,-1
 419 640 l 1,30,-1
 449 720 l 1,31,32
 489 710 489 710 499 670 c 1,33,-1
 499 390 l 1,34,-1
 479 370 l 1,35,-1
 419 430 l 1,29,-1
EndSplineSet
Validated: 1
EndChar

StartChar: one
Encoding: 49 49 20
Width: 579
Flags: W
LayerCount: 2
Fore
SplineSet
477.5 356 m 5,0,-1
 497.5 336 l 5,1,-1
 497.5 56 l 5,2,3
 487.5 16 487.5 16 447.5 6 c 5,4,-1
 417.5 86 l 5,5,-1
 417.5 296 l 5,6,-1
 477.5 356 l 5,0,-1
417.5 436 m 5,7,-1
 417.5 646 l 5,8,-1
 447.5 726 l 5,9,10
 487.5 716 487.5 716 497.5 676 c 5,11,-1
 497.5 396 l 5,12,-1
 477.5 376 l 5,13,-1
 417.5 436 l 5,7,-1
EndSplineSet
Validated: 524289
EndChar

StartChar: two
Encoding: 50 50 21
Width: 579
Flags: W
LayerCount: 2
Fore
SplineSet
414 400 m 1,0,-1
 454 360 l 1,1,-1
 414 320 l 1,2,-1
 154 320 l 1,3,-1
 114 360 l 1,4,-1
 154 400 l 1,5,-1
 414 400 l 1,0,-1
454 0 m 1,6,-1
 124 0 l 1,7,8
 84 10 84 10 74 50 c 1,9,-1
 154 80 l 1,10,-1
 424 80 l 1,11,-1
 454 0 l 1,6,-1
74 70 m 1,12,-1
 74 330 l 1,13,-1
 94 350 l 1,14,-1
 154 290 l 1,15,-1
 154 100 l 1,16,-1
 74 70 l 1,12,-1
394 640 m 1,17,-1
 155 640 l 1,18,-1
 75 670 l 1,19,20
 85 710 85 710 125 720 c 1,21,-1
 424 720 l 1,22,-1
 394 640 l 1,17,-1
414 430 m 1,23,-1
 414 640 l 1,24,-1
 444 720 l 1,25,26
 484 710 484 710 494 670 c 1,27,-1
 494 390 l 1,28,-1
 474 370 l 1,29,-1
 414 430 l 1,23,-1
EndSplineSet
Validated: 1
EndChar

StartChar: three
Encoding: 51 51 22
Width: 579
Flags: W
LayerCount: 2
Fore
SplineSet
401 400 m 1,0,-1
 441 360 l 1,1,-1
 401 320 l 1,2,-1
 141 320 l 1,3,-1
 101 360 l 1,4,-1
 141 400 l 1,5,-1
 401 400 l 1,0,-1
461 350 m 1,6,-1
 481 330 l 1,7,-1
 481 50 l 1,8,9
 471 10 471 10 431 0 c 1,10,-1
 401 80 l 1,11,-1
 401 290 l 1,12,-1
 461 350 l 1,6,-1
411 0 m 1,13,-1
 111 0 l 1,14,15
 71 10 71 10 61 50 c 1,16,-1
 141 80 l 1,17,-1
 381 80 l 1,18,-1
 411 0 l 1,13,-1
381 640 m 1,19,-1
 142 640 l 1,20,-1
 62 670 l 1,21,22
 72 710 72 710 112 720 c 1,23,-1
 411 720 l 1,24,-1
 381 640 l 1,19,-1
401 430 m 1,25,-1
 401 640 l 1,26,-1
 431 720 l 1,27,28
 471 710 471 710 481 670 c 1,29,-1
 481 390 l 1,30,-1
 461 370 l 1,31,-1
 401 430 l 1,25,-1
EndSplineSet
Validated: 1
EndChar

StartChar: four
Encoding: 52 52 23
Width: 579
Flags: W
LayerCount: 2
Fore
SplineSet
410 400 m 1,0,-1
 450 360 l 1,1,-1
 410 320 l 1,2,-1
 150 320 l 1,3,-1
 110 360 l 1,4,-1
 150 400 l 1,5,-1
 410 400 l 1,0,-1
470 350 m 1,6,-1
 490 330 l 1,7,-1
 490 50 l 1,8,9
 480 10 480 10 440 0 c 1,10,-1
 410 80 l 1,11,-1
 410 290 l 1,12,-1
 470 350 l 1,6,-1
150 650 m 1,13,-1
 150 430 l 1,14,-1
 90 370 l 1,15,-1
 70 390 l 1,16,-1
 70 680 l 1,17,-1
 150 650 l 1,13,-1
410 430 m 1,18,-1
 410 640 l 1,19,-1
 440 720 l 1,20,21
 480 710 480 710 490 670 c 1,22,-1
 490 390 l 1,23,-1
 470 370 l 1,24,-1
 410 430 l 1,18,-1
EndSplineSet
Validated: 1
EndChar

StartChar: five
Encoding: 53 53 24
Width: 579
Flags: W
LayerCount: 2
Fore
SplineSet
416 400 m 1,0,-1
 456 360 l 1,1,-1
 416 320 l 1,2,-1
 156 320 l 1,3,-1
 116 360 l 1,4,-1
 156 400 l 1,5,-1
 416 400 l 1,0,-1
476 350 m 1,6,-1
 496 330 l 1,7,-1
 496 50 l 1,8,9
 486 10 486 10 446 0 c 1,10,-1
 416 80 l 1,11,-1
 416 290 l 1,12,-1
 476 350 l 1,6,-1
426 0 m 1,13,-1
 126 0 l 1,14,15
 86 10 86 10 76 50 c 1,16,-1
 156 80 l 1,17,-1
 396 80 l 1,18,-1
 426 0 l 1,13,-1
426 640 m 1,19,-1
 157 640 l 1,20,-1
 77 670 l 1,21,22
 87 710 87 710 127 720 c 1,23,-1
 456 720 l 1,24,-1
 426 640 l 1,19,-1
156 620 m 1,25,-1
 156 430 l 1,26,-1
 96 370 l 1,27,-1
 76 390 l 1,28,-1
 76 650 l 1,29,-1
 156 620 l 1,25,-1
EndSplineSet
Validated: 1
EndChar

StartChar: six
Encoding: 54 54 25
Width: 579
Flags: W
LayerCount: 2
Fore
SplineSet
419 400 m 1,0,-1
 459 360 l 1,1,-1
 419 320 l 1,2,-1
 159 320 l 1,3,-1
 119 360 l 1,4,-1
 159 400 l 1,5,-1
 419 400 l 1,0,-1
479 350 m 1,6,-1
 499 330 l 1,7,-1
 499 50 l 1,8,9
 489 10 489 10 449 0 c 1,10,-1
 419 80 l 1,11,-1
 419 290 l 1,12,-1
 479 350 l 1,6,-1
429 0 m 1,13,-1
 129 0 l 1,14,15
 89 10 89 10 79 50 c 1,16,-1
 159 80 l 1,17,-1
 399 80 l 1,18,-1
 429 0 l 1,13,-1
79 70 m 1,19,-1
 79 330 l 1,20,-1
 99 350 l 1,21,-1
 159 290 l 1,22,-1
 159 100 l 1,23,-1
 79 70 l 1,19,-1
429 640 m 1,24,-1
 160 640 l 1,25,-1
 80 670 l 1,26,27
 90 710 90 710 130 720 c 1,28,-1
 459 720 l 1,29,-1
 429 640 l 1,24,-1
159 620 m 1,30,-1
 159 430 l 1,31,-1
 99 370 l 1,32,-1
 79 390 l 1,33,-1
 79 650 l 1,34,-1
 159 620 l 1,30,-1
EndSplineSet
Validated: 1
EndChar

StartChar: seven
Encoding: 55 55 26
Width: 579
Flags: W
LayerCount: 2
Fore
SplineSet
471 350 m 1,0,-1
 491 330 l 1,1,-1
 491 50 l 1,2,3
 481 10 481 10 441 0 c 1,4,-1
 411 80 l 1,5,-1
 411 290 l 1,6,-1
 471 350 l 1,0,-1
391 640 m 1,7,-1
 152 640 l 1,8,-1
 72 670 l 1,9,10
 82 710 82 710 122 720 c 1,11,-1
 421 720 l 1,12,-1
 391 640 l 1,7,-1
151 620 m 1,13,-1
 151 430 l 1,14,-1
 91 370 l 1,15,-1
 71 390 l 1,16,-1
 71 650 l 1,17,-1
 151 620 l 1,13,-1
411 430 m 1,18,-1
 411 640 l 1,19,-1
 441 720 l 1,20,21
 481 710 481 710 491 670 c 1,22,-1
 491 390 l 1,23,-1
 471 370 l 1,24,-1
 411 430 l 1,18,-1
EndSplineSet
Validated: 1
EndChar

StartChar: eight
Encoding: 56 56 27
Width: 579
Flags: W
LayerCount: 2
Fore
SplineSet
419 400 m 1,0,-1
 459 360 l 1,1,-1
 419 320 l 1,2,-1
 159 320 l 1,3,-1
 119 360 l 1,4,-1
 159 400 l 1,5,-1
 419 400 l 1,0,-1
479 350 m 1,6,-1
 499 330 l 1,7,-1
 499 50 l 1,8,9
 489 10 489 10 449 0 c 1,10,-1
 419 80 l 1,11,-1
 419 290 l 1,12,-1
 479 350 l 1,6,-1
429 0 m 1,13,-1
 129 0 l 1,14,15
 89 10 89 10 79 50 c 1,16,-1
 159 80 l 1,17,-1
 399 80 l 1,18,-1
 429 0 l 1,13,-1
79 70 m 1,19,-1
 79 330 l 1,20,-1
 99 350 l 1,21,-1
 159 290 l 1,22,-1
 159 100 l 1,23,-1
 79 70 l 1,19,-1
399 640 m 1,24,-1
 160 640 l 1,25,-1
 80 670 l 1,26,27
 90 710 90 710 130 720 c 1,28,-1
 429 720 l 1,29,-1
 399 640 l 1,24,-1
159 620 m 1,30,-1
 159 430 l 1,31,-1
 99 370 l 1,32,-1
 79 390 l 1,33,-1
 79 650 l 1,34,-1
 159 620 l 1,30,-1
419 430 m 1,35,-1
 419 640 l 1,36,-1
 449 720 l 1,37,38
 489 710 489 710 499 670 c 1,39,-1
 499 390 l 1,40,-1
 479 370 l 1,41,-1
 419 430 l 1,35,-1
EndSplineSet
Validated: 1
EndChar

StartChar: nine
Encoding: 57 57 28
Width: 579
Flags: W
LayerCount: 2
Fore
SplineSet
416 400 m 1,0,-1
 456 360 l 1,1,-1
 416 320 l 1,2,-1
 156 320 l 1,3,-1
 116 360 l 1,4,-1
 156 400 l 1,5,-1
 416 400 l 1,0,-1
476 350 m 1,6,-1
 496 330 l 1,7,-1
 496 50 l 1,8,9
 486 10 486 10 446 0 c 1,10,-1
 416 80 l 1,11,-1
 416 290 l 1,12,-1
 476 350 l 1,6,-1
426 0 m 1,13,-1
 126 0 l 1,14,15
 86 10 86 10 76 50 c 1,16,-1
 156 80 l 1,17,-1
 396 80 l 1,18,-1
 426 0 l 1,13,-1
396 640 m 1,19,-1
 157 640 l 1,20,-1
 77 670 l 1,21,22
 87 710 87 710 127 720 c 1,23,-1
 426 720 l 1,24,-1
 396 640 l 1,19,-1
156 620 m 1,25,-1
 156 430 l 1,26,-1
 96 370 l 1,27,-1
 76 390 l 1,28,-1
 76 650 l 1,29,-1
 156 620 l 1,25,-1
416 430 m 1,30,-1
 416 640 l 1,31,-1
 446 720 l 1,32,33
 486 710 486 710 496 670 c 1,34,-1
 496 390 l 1,35,-1
 476 370 l 1,36,-1
 416 430 l 1,30,-1
EndSplineSet
Validated: 1
EndChar

StartChar: colon
Encoding: 58 58 29
Width: 579
Flags: W
LayerCount: 2
Fore
SplineSet
292 160 m 5,0,-1
 212 160 l 5,1,-1
 212 240 l 5,2,-1
 292 240 l 5,3,-1
 292 160 l 5,0,-1
292 480 m 5,4,-1
 212 480 l 5,5,-1
 212 560 l 5,6,-1
 292 560 l 5,7,-1
 292 480 l 5,4,-1
EndSplineSet
Validated: 1
EndChar

StartChar: semicolon
Encoding: 59 59 30
Width: 579
Flags: W
LayerCount: 2
Fore
SplineSet
157 480 m 1,0,-1
 77 480 l 1,1,-1
 77 560 l 1,2,-1
 157 560 l 1,3,-1
 157 480 l 1,0,-1
157 -80 m 1,4,-1
 117 -120 l 1,5,-1
 77 -80 l 1,6,-1
 77 80 l 1,7,-1
 157 80 l 1,8,-1
 157 -80 l 1,4,-1
EndSplineSet
Validated: 1
EndChar

StartChar: less
Encoding: 60 60 31
Width: 579
Flags: W
LayerCount: 2
Fore
SplineSet
165 370 m 1,0,-1
 55 370 l 1,1,-1
 255 570 l 1,2,-1
 295 570 l 1,3,-1
 325 531 l 1,4,-1
 165 370 l 1,0,-1
325 189 m 1,5,-1
 295 150 l 1,6,-1
 255 150 l 1,7,-1
 55 350 l 1,8,-1
 165 350 l 1,9,-1
 325 189 l 1,5,-1
EndSplineSet
Validated: 1
EndChar

StartChar: equal
Encoding: 61 61 32
Width: 579
Flags: W
LayerCount: 2
Fore
SplineSet
371 480 m 1,0,-1
 411 440 l 1,1,-1
 371 400 l 1,2,-1
 111 400 l 1,3,-1
 71 440 l 1,4,-1
 111 480 l 1,5,-1
 371 480 l 1,0,-1
371 319 m 1,6,-1
 411 279 l 1,7,-1
 371 239 l 1,8,-1
 111 239 l 1,9,-1
 71 279 l 1,10,-1
 111 319 l 1,11,-1
 371 319 l 1,6,-1
EndSplineSet
Validated: 1
EndChar

StartChar: greater
Encoding: 62 62 33
Width: 579
Flags: W
LayerCount: 2
Fore
SplineSet
64 531 m 1,0,-1
 94 570 l 1,1,-1
 134 570 l 1,2,-1
 334 370 l 1,3,-1
 224 370 l 1,4,-1
 64 531 l 1,0,-1
224 350 m 1,5,-1
 334 350 l 1,6,-1
 134 150 l 1,7,-1
 94 150 l 1,8,-1
 64 189 l 1,9,-1
 224 350 l 1,5,-1
EndSplineSet
Validated: 1
EndChar

StartChar: question
Encoding: 63 63 34
Width: 579
Flags: W
LayerCount: 2
Fore
SplineSet
415 400 m 1,0,-1
 455 360 l 1,1,-1
 415 320 l 1,2,-1
 155 320 l 1,3,-1
 115 360 l 1,4,-1
 155 400 l 1,5,-1
 415 400 l 1,0,-1
75 160 m 1,6,-1
 75 330 l 1,7,-1
 95 350 l 1,8,-1
 155 290 l 1,9,-1
 155 160 l 1,10,-1
 75 160 l 1,6,-1
395 640 m 1,11,-1
 156 640 l 1,12,-1
 76 670 l 1,13,14
 86 710 86 710 126 720 c 1,15,-1
 425 720 l 1,16,-1
 395 640 l 1,11,-1
415 430 m 1,17,-1
 415 640 l 1,18,-1
 445 720 l 1,19,20
 485 710 485 710 495 670 c 1,21,-1
 495 390 l 1,22,-1
 475 370 l 1,23,-1
 415 430 l 1,17,-1
155 0 m 1,24,-1
 75 0 l 1,25,-1
 75 80 l 1,26,-1
 155 80 l 1,27,-1
 155 0 l 1,24,-1
EndSplineSet
Validated: 1
EndChar

StartChar: at
Encoding: 64 64 35
Width: 579
Flags: W
LayerCount: 2
Fore
SplineSet
479 350 m 1,0,-1
 499 330 l 1,1,-1
 499 210 l 1,2,3
 489 170 489 170 449 160 c 1,4,-1
 419 240 l 1,5,-1
 419 290 l 1,6,-1
 479 350 l 1,0,-1
429 0 m 1,7,-1
 129 0 l 1,8,9
 89 10 89 10 79 50 c 1,10,-1
 159 80 l 1,11,-1
 399 80 l 1,12,-1
 429 0 l 1,7,-1
79 70 m 1,13,-1
 79 330 l 1,14,-1
 99 350 l 1,15,-1
 159 290 l 1,16,-1
 159 100 l 1,17,-1
 79 70 l 1,13,-1
399 640 m 1,18,-1
 160 640 l 1,19,-1
 80 670 l 1,20,21
 90 710 90 710 130 720 c 1,22,-1
 429 720 l 1,23,-1
 399 640 l 1,18,-1
159 620 m 1,24,-1
 159 430 l 1,25,-1
 99 370 l 1,26,-1
 79 390 l 1,27,-1
 79 650 l 1,28,-1
 159 620 l 1,24,-1
419 430 m 1,29,-1
 419 640 l 1,30,-1
 449 720 l 1,31,32
 489 710 489 710 499 670 c 1,33,-1
 499 390 l 1,34,-1
 479 370 l 1,35,-1
 419 430 l 1,29,-1
429 160 m 1,36,-1
 289 159 l 1,37,38
 249 169 249 169 239 209 c 1,39,-1
 319 240 l 1,40,-1
 399 240 l 1,41,-1
 429 160 l 1,36,-1
239 230 m 1,42,-1
 239 330 l 1,43,-1
 259 350 l 1,44,-1
 319 290 l 1,45,-1
 319 260 l 1,46,-1
 239 230 l 1,42,-1
319 460 m 1,47,-1
 319 430 l 1,48,-1
 259 370 l 1,49,-1
 239 390 l 1,50,-1
 239 490 l 1,51,-1
 319 460 l 1,47,-1
399 480 m 1,52,-1
 319 480 l 1,53,-1
 239 511 l 1,54,55
 249 551 249 551 289 561 c 1,56,-1
 399 560 l 1,57,-1
 399 480 l 1,52,-1
EndSplineSet
Validated: 1
EndChar

StartChar: A
Encoding: 65 65 36
Width: 579
Flags: W
LayerCount: 2
Fore
SplineSet
417 400 m 1,0,-1
 457 360 l 1,1,-1
 417 320 l 1,2,-1
 157 320 l 1,3,-1
 117 360 l 1,4,-1
 157 400 l 1,5,-1
 417 400 l 1,0,-1
477 350 m 1,6,-1
 497 330 l 1,7,-1
 497 50 l 1,8,9
 487 10 487 10 447 0 c 1,10,-1
 417 80 l 1,11,-1
 417 290 l 1,12,-1
 477 350 l 1,6,-1
397 640 m 1,13,-1
 158 640 l 1,14,-1
 78 670 l 1,15,16
 88 710 88 710 128 720 c 1,17,-1
 427 720 l 1,18,-1
 397 640 l 1,13,-1
157 620 m 1,19,-1
 157 430 l 1,20,-1
 97 370 l 1,21,-1
 77 390 l 1,22,-1
 77 650 l 1,23,-1
 157 620 l 1,19,-1
417 430 m 1,24,-1
 417 640 l 1,25,-1
 447 720 l 1,26,27
 487 710 487 710 497 670 c 1,28,-1
 497 390 l 1,29,-1
 477 370 l 1,30,-1
 417 430 l 1,24,-1
157 290 m 1,31,-1
 157 80 l 1,32,-1
 127 0 l 1,33,34
 87 10 87 10 77 50 c 1,35,-1
 77 330 l 1,36,-1
 97 350 l 1,37,-1
 157 290 l 1,31,-1
EndSplineSet
Validated: 1
EndChar

StartChar: B
Encoding: 66 66 37
Width: 579
Flags: W
LayerCount: 2
Fore
SplineSet
420 400 m 1,0,-1
 460 360 l 1,1,-1
 420 320 l 1,2,-1
 160 320 l 1,3,-1
 120 360 l 1,4,-1
 160 400 l 1,5,-1
 420 400 l 1,0,-1
80 70 m 1,6,-1
 80 330 l 1,7,-1
 100 350 l 1,8,-1
 160 290 l 1,9,-1
 160 100 l 1,10,-1
 80 70 l 1,6,-1
400 640 m 1,11,-1
 160 640 l 1,12,-1
 80 670 l 1,13,-1
 80 720 l 1,14,-1
 400 720 l 1,15,-1
 440 680 l 1,16,-1
 400 640 l 1,11,-1
160 620 m 1,17,-1
 160 430 l 1,18,-1
 100 370 l 1,19,-1
 80 390 l 1,20,-1
 80 650 l 1,21,-1
 160 620 l 1,17,-1
420 430 m 1,22,-1
 420 640 l 1,23,-1
 450 670 l 1,24,-1
 500 620 l 1,25,-1
 500 390 l 1,26,-1
 480 370 l 1,27,-1
 420 430 l 1,22,-1
480 350 m 1,28,-1
 500 330 l 1,29,-1
 500 100 l 1,30,-1
 450 50 l 1,31,-1
 420 80 l 1,32,-1
 420 290 l 1,33,-1
 480 350 l 1,28,-1
439 40 m 1,34,-1
 399 0 l 1,35,-1
 80 0 l 1,36,-1
 80 50 l 1,37,-1
 160 80 l 1,38,-1
 399 80 l 1,39,-1
 439 40 l 1,34,-1
EndSplineSet
Validated: 1
EndChar

StartChar: C
Encoding: 67 67 38
Width: 579
Flags: W
LayerCount: 2
Fore
SplineSet
457 0 m 1,0,-1
 127 0 l 1,1,2
 87 10 87 10 77 50 c 1,3,-1
 157 80 l 1,4,-1
 427 80 l 1,5,-1
 457 0 l 1,0,-1
77 70 m 1,6,-1
 77 330 l 1,7,-1
 97 350 l 1,8,-1
 157 290 l 1,9,-1
 157 100 l 1,10,-1
 77 70 l 1,6,-1
427 640 m 1,11,-1
 158 640 l 1,12,-1
 78 670 l 1,13,14
 88 710 88 710 128 720 c 1,15,-1
 457 720 l 1,16,-1
 427 640 l 1,11,-1
157 620 m 1,17,-1
 157 430 l 1,18,-1
 97 370 l 1,19,-1
 77 390 l 1,20,-1
 77 650 l 1,21,-1
 157 620 l 1,17,-1
EndSplineSet
Validated: 1
EndChar

StartChar: D
Encoding: 68 68 39
Width: 579
Flags: W
LayerCount: 2
Fore
SplineSet
80 70 m 1,0,-1
 80 330 l 1,1,-1
 100 350 l 1,2,-1
 160 290 l 1,3,-1
 160 100 l 1,4,-1
 80 70 l 1,0,-1
400 640 m 1,5,-1
 160 640 l 1,6,-1
 80 670 l 1,7,-1
 80 720 l 1,8,-1
 400 720 l 1,9,-1
 440 680 l 1,10,-1
 400 640 l 1,5,-1
160 620 m 1,11,-1
 160 430 l 1,12,-1
 100 370 l 1,13,-1
 80 390 l 1,14,-1
 80 650 l 1,15,-1
 160 620 l 1,11,-1
420 430 m 1,16,-1
 420 640 l 1,17,-1
 450 670 l 1,18,-1
 500 620 l 1,19,-1
 500 390 l 1,20,-1
 480 370 l 1,21,-1
 420 430 l 1,16,-1
480 350 m 1,22,-1
 500 330 l 1,23,-1
 500 100 l 1,24,-1
 450 50 l 1,25,-1
 420 80 l 1,26,-1
 420 290 l 1,27,-1
 480 350 l 1,22,-1
439 40 m 1,28,-1
 399 0 l 1,29,-1
 80 0 l 1,30,-1
 80 50 l 1,31,-1
 160 80 l 1,32,-1
 399 80 l 1,33,-1
 439 40 l 1,28,-1
EndSplineSet
Validated: 1
EndChar

StartChar: E
Encoding: 69 69 40
Width: 579
Flags: W
LayerCount: 2
Fore
SplineSet
417 400 m 1,0,-1
 457 360 l 1,1,-1
 417 320 l 1,2,-1
 157 320 l 1,3,-1
 117 360 l 1,4,-1
 157 400 l 1,5,-1
 417 400 l 1,0,-1
457 0 m 1,6,-1
 127 0 l 1,7,8
 87 10 87 10 77 50 c 1,9,-1
 157 80 l 1,10,-1
 427 80 l 1,11,-1
 457 0 l 1,6,-1
77 70 m 1,12,-1
 77 330 l 1,13,-1
 97 350 l 1,14,-1
 157 290 l 1,15,-1
 157 100 l 1,16,-1
 77 70 l 1,12,-1
427 640 m 1,17,-1
 158 640 l 1,18,-1
 78 670 l 1,19,20
 88 710 88 710 128 720 c 1,21,-1
 457 720 l 1,22,-1
 427 640 l 1,17,-1
157 620 m 1,23,-1
 157 430 l 1,24,-1
 97 370 l 1,25,-1
 77 390 l 1,26,-1
 77 650 l 1,27,-1
 157 620 l 1,23,-1
EndSplineSet
Validated: 1
EndChar

StartChar: F
Encoding: 70 70 41
Width: 579
Flags: W
LayerCount: 2
Fore
SplineSet
417 400 m 1,0,-1
 457 360 l 1,1,-1
 417 320 l 1,2,-1
 157 320 l 1,3,-1
 117 360 l 1,4,-1
 157 400 l 1,5,-1
 417 400 l 1,0,-1
427 640 m 1,6,-1
 158 640 l 1,7,-1
 78 670 l 1,8,9
 88 710 88 710 128 720 c 1,10,-1
 457 720 l 1,11,-1
 427 640 l 1,6,-1
157 620 m 1,12,-1
 157 430 l 1,13,-1
 97 370 l 1,14,-1
 77 390 l 1,15,-1
 77 650 l 1,16,-1
 157 620 l 1,12,-1
157 290 m 1,17,-1
 157 80 l 1,18,-1
 127 0 l 1,19,20
 87 10 87 10 77 50 c 1,21,-1
 77 330 l 1,22,-1
 97 350 l 1,23,-1
 157 290 l 1,17,-1
EndSplineSet
Validated: 1
EndChar

StartChar: G
Encoding: 71 71 42
Width: 579
Flags: W
LayerCount: 2
Fore
SplineSet
417 400 m 1,0,-1
 457 360 l 1,1,-1
 417 320 l 1,2,-1
 327 320 l 1,3,-1
 287 360 l 1,4,-1
 327 400 l 1,5,-1
 417 400 l 1,0,-1
477 350 m 1,6,-1
 497 330 l 1,7,-1
 497 50 l 1,8,9
 487 10 487 10 447 0 c 1,10,-1
 417 80 l 1,11,-1
 417 290 l 1,12,-1
 477 350 l 1,6,-1
427 0 m 1,13,-1
 127 0 l 1,14,15
 87 10 87 10 77 50 c 1,16,-1
 157 80 l 1,17,-1
 397 80 l 1,18,-1
 427 0 l 1,13,-1
77 70 m 1,19,-1
 77 330 l 1,20,-1
 97 350 l 1,21,-1
 157 290 l 1,22,-1
 157 100 l 1,23,-1
 77 70 l 1,19,-1
427 640 m 1,24,-1
 158 640 l 1,25,-1
 78 670 l 1,26,27
 88 710 88 710 128 720 c 1,28,-1
 457 720 l 1,29,-1
 427 640 l 1,24,-1
157 620 m 1,30,-1
 157 430 l 1,31,-1
 97 370 l 1,32,-1
 77 390 l 1,33,-1
 77 650 l 1,34,-1
 157 620 l 1,30,-1
EndSplineSet
Validated: 1
EndChar

StartChar: H
Encoding: 72 72 43
Width: 579
Flags: W
LayerCount: 2
Fore
SplineSet
417 400 m 1,0,-1
 457 360 l 1,1,-1
 417 320 l 1,2,-1
 157 320 l 1,3,-1
 117 360 l 1,4,-1
 157 400 l 1,5,-1
 417 400 l 1,0,-1
477 350 m 1,6,-1
 497 330 l 1,7,-1
 497 50 l 1,8,9
 487 10 487 10 447 0 c 1,10,-1
 417 80 l 1,11,-1
 417 290 l 1,12,-1
 477 350 l 1,6,-1
417 430 m 1,13,-1
 417 640 l 1,14,-1
 447 720 l 1,15,16
 487 710 487 710 497 670 c 1,17,-1
 497 390 l 1,18,-1
 477 370 l 1,19,-1
 417 430 l 1,13,-1
157 290 m 1,20,-1
 157 80 l 1,21,-1
 127 0 l 1,22,23
 87 10 87 10 77 50 c 1,24,-1
 77 330 l 1,25,-1
 97 350 l 1,26,-1
 157 290 l 1,20,-1
97 360 m 1,27,-1
 77 380 l 1,28,-1
 77 660 l 1,29,30
 87 700 87 700 127 710 c 1,31,-1
 157 630 l 1,32,-1
 157 420 l 1,33,-1
 97 360 l 1,27,-1
EndSplineSet
Validated: 1
EndChar

StartChar: I
Encoding: 73 73 44
Width: 579
Flags: W
LayerCount: 2
Fore
SplineSet
74 430 m 1,0,-1
 74 640 l 1,1,-1
 104 720 l 1,2,3
 144 710 144 710 154 670 c 1,4,-1
 154 390 l 1,5,-1
 134 370 l 1,6,-1
 74 430 l 1,0,-1
134 360 m 1,7,-1
 154 340 l 1,8,-1
 154 60 l 1,9,10
 144 20 144 20 104 10 c 1,11,-1
 74 90 l 1,12,-1
 74 300 l 1,13,-1
 134 360 l 1,7,-1
EndSplineSet
Validated: 1
EndChar

StartChar: J
Encoding: 74 74 45
Width: 579
Flags: W
LayerCount: 2
Fore
SplineSet
471 350 m 1,0,-1
 491 330 l 1,1,-1
 491 50 l 1,2,3
 481 10 481 10 441 0 c 1,4,-1
 411 80 l 1,5,-1
 411 290 l 1,6,-1
 471 350 l 1,0,-1
421 0 m 1,7,-1
 121 0 l 1,8,9
 81 10 81 10 71 50 c 1,10,-1
 151 80 l 1,11,-1
 391 80 l 1,12,-1
 421 0 l 1,7,-1
71 70 m 1,13,-1
 71 330 l 1,14,-1
 91 350 l 1,15,-1
 151 290 l 1,16,-1
 151 100 l 1,17,-1
 71 70 l 1,13,-1
411 430 m 1,18,-1
 411 640 l 1,19,-1
 441 720 l 1,20,21
 481 710 481 710 491 670 c 1,22,-1
 491 390 l 1,23,-1
 471 370 l 1,24,-1
 411 430 l 1,18,-1
EndSplineSet
Validated: 1
EndChar

StartChar: K
Encoding: 75 75 46
Width: 579
Flags: W
LayerCount: 2
Fore
SplineSet
418 400 m 1,0,-1
 458 360 l 1,1,-1
 418 320 l 1,2,-1
 158 320 l 1,3,-1
 118 360 l 1,4,-1
 158 400 l 1,5,-1
 418 400 l 1,0,-1
478 350 m 1,6,-1
 498 330 l 1,7,-1
 498 50 l 1,8,9
 488 10 488 10 448 0 c 1,10,-1
 418 80 l 1,11,-1
 418 290 l 1,12,-1
 478 350 l 1,6,-1
178 480 m 1,13,-1
 418 720 l 1,14,15
 478 720 478 720 498 680 c 1,16,-1
 238 420 l 1,17,-1
 178 420 l 1,18,-1
 178 480 l 1,13,-1
158 290 m 1,19,-1
 158 80 l 1,20,-1
 128 0 l 1,21,22
 88 10 88 10 78 50 c 1,23,-1
 78 330 l 1,24,-1
 98 350 l 1,25,-1
 158 290 l 1,19,-1
98 370 m 1,26,-1
 78 390 l 1,27,-1
 78 670 l 1,28,29
 88 710 88 710 128 720 c 1,30,-1
 158 640 l 1,31,-1
 158 430 l 1,32,-1
 98 370 l 1,26,-1
EndSplineSet
Validated: 1
EndChar

StartChar: L
Encoding: 76 76 47
Width: 579
Flags: W
LayerCount: 2
Fore
SplineSet
158 290 m 1,0,-1
 158 80 l 1,1,-1
 128 0 l 1,2,3
 88 10 88 10 78 50 c 1,4,-1
 78 330 l 1,5,-1
 98 350 l 1,6,-1
 158 290 l 1,0,-1
178 80 m 1,7,-1
 418 80 l 1,8,-1
 498 50 l 1,9,10
 488 10 488 10 448 0 c 1,11,-1
 148 0 l 1,12,-1
 178 80 l 1,7,-1
98 370 m 1,13,-1
 78 390 l 1,14,-1
 78 670 l 1,15,16
 88 710 88 710 128 720 c 1,17,-1
 158 640 l 1,18,-1
 158 430 l 1,19,-1
 98 370 l 1,13,-1
EndSplineSet
Validated: 1
EndChar

StartChar: M
Encoding: 77 77 48
Width: 579
Flags: W
LayerCount: 2
Fore
SplineSet
327 390 m 1,0,-1
 287 350 l 1,1,-1
 247 390 l 1,2,-1
 247 620 l 1,3,-1
 327 620 l 1,4,-1
 327 390 l 1,0,-1
477 350 m 1,5,-1
 497 330 l 1,6,-1
 497 50 l 1,7,8
 487 10 487 10 447 0 c 1,9,-1
 417 80 l 1,10,-1
 417 290 l 1,11,-1
 477 350 l 1,5,-1
397 640 m 1,12,-1
 158 640 l 1,13,-1
 78 670 l 1,14,15
 88 710 88 710 128 720 c 1,16,-1
 427 720 l 1,17,-1
 397 640 l 1,12,-1
157 620 m 1,18,-1
 157 430 l 1,19,-1
 97 370 l 1,20,-1
 77 390 l 1,21,-1
 77 650 l 1,22,-1
 157 620 l 1,18,-1
417 430 m 1,23,-1
 417 640 l 1,24,-1
 447 720 l 1,25,26
 487 710 487 710 497 670 c 1,27,-1
 497 390 l 1,28,-1
 477 370 l 1,29,-1
 417 430 l 1,23,-1
157 290 m 1,30,-1
 157 80 l 1,31,-1
 127 0 l 1,32,33
 87 10 87 10 77 50 c 1,34,-1
 77 330 l 1,35,-1
 97 350 l 1,36,-1
 157 290 l 1,30,-1
EndSplineSet
Validated: 1
EndChar

StartChar: N
Encoding: 78 78 49
Width: 579
Flags: W
LayerCount: 2
Fore
SplineSet
157 290 m 1,0,-1
 157 80 l 1,1,-1
 127 0 l 1,2,3
 87 10 87 10 77 50 c 1,4,-1
 77 330 l 1,5,-1
 97 350 l 1,6,-1
 157 290 l 1,0,-1
397 420 m 1,7,-1
 327 420 l 1,8,-1
 177 570 l 1,9,-1
 177 630 l 1,10,-1
 237 630 l 1,11,-1
 397 470 l 1,12,-1
 397 420 l 1,7,-1
477 350 m 1,13,-1
 497 330 l 1,14,-1
 497 50 l 1,15,16
 487 10 487 10 447 0 c 1,17,-1
 417 80 l 1,18,-1
 417 290 l 1,19,-1
 477 350 l 1,13,-1
417 420 m 1,20,-1
 417 630 l 1,21,-1
 447 710 l 1,22,23
 487 700 487 700 497 660 c 1,24,-1
 497 380 l 1,25,-1
 477 360 l 1,26,-1
 417 420 l 1,20,-1
97 360 m 1,27,-1
 77 380 l 1,28,-1
 77 660 l 1,29,30
 87 700 87 700 127 710 c 1,31,-1
 157 630 l 1,32,-1
 157 420 l 1,33,-1
 97 360 l 1,27,-1
EndSplineSet
Validated: 1
EndChar

StartChar: O
Encoding: 79 79 50
Width: 579
Flags: W
LayerCount: 2
Fore
SplineSet
391 640 m 1,0,-1
 171 640 l 1,1,-1
 131 680 l 1,2,-1
 171 720 l 1,3,-1
 391 720 l 1,4,-1
 431 680 l 1,5,-1
 391 640 l 1,0,-1
411 430 m 1,6,-1
 411 640 l 1,7,-1
 441 670 l 1,8,-1
 491 620 l 1,9,-1
 491 390 l 1,10,-1
 471 370 l 1,11,-1
 411 430 l 1,6,-1
471 350 m 1,12,-1
 491 330 l 1,13,-1
 491 100 l 1,14,-1
 441 50 l 1,15,-1
 411 80 l 1,16,-1
 411 290 l 1,17,-1
 471 350 l 1,12,-1
91 370 m 1,18,-1
 71 390 l 1,19,-1
 71 620 l 1,20,-1
 121 670 l 1,21,-1
 151 640 l 1,22,-1
 151 430 l 1,23,-1
 91 370 l 1,18,-1
431 40 m 1,24,-1
 391 0 l 1,25,-1
 171 0 l 1,26,-1
 131 40 l 1,27,-1
 171 80 l 1,28,-1
 391 80 l 1,29,-1
 431 40 l 1,24,-1
151 290 m 1,30,-1
 151 80 l 1,31,-1
 121 50 l 1,32,-1
 71 100 l 1,33,-1
 71 330 l 1,34,-1
 91 350 l 1,35,-1
 151 290 l 1,30,-1
EndSplineSet
Validated: 1
EndChar

StartChar: P
Encoding: 80 80 51
Width: 579
Flags: W
LayerCount: 2
Fore
SplineSet
419 400 m 1,0,-1
 459 360 l 1,1,-1
 419 320 l 1,2,-1
 159 320 l 1,3,-1
 119 360 l 1,4,-1
 159 400 l 1,5,-1
 419 400 l 1,0,-1
399 640 m 1,6,-1
 159 640 l 1,7,-1
 79 670 l 1,8,-1
 79 720 l 1,9,-1
 399 720 l 1,10,-1
 439 680 l 1,11,-1
 399 640 l 1,6,-1
159 620 m 1,12,-1
 159 430 l 1,13,-1
 99 370 l 1,14,-1
 79 390 l 1,15,-1
 79 650 l 1,16,-1
 159 620 l 1,12,-1
419 430 m 1,17,-1
 419 640 l 1,18,-1
 449 670 l 1,19,-1
 499 620 l 1,20,-1
 499 390 l 1,21,-1
 479 370 l 1,22,-1
 419 430 l 1,17,-1
159 290 m 1,23,-1
 159 80 l 1,24,-1
 129 0 l 1,25,26
 89 10 89 10 79 50 c 1,27,-1
 79 330 l 1,28,-1
 99 350 l 1,29,-1
 159 290 l 1,23,-1
EndSplineSet
Validated: 1
EndChar

StartChar: Q
Encoding: 81 81 52
Width: 579
Flags: W
LayerCount: 2
Fore
SplineSet
477 350 m 1,0,-1
 497 330 l 1,1,-1
 497 90 l 1,2,-1
 417 170 l 1,3,-1
 417 290 l 1,4,-1
 477 350 l 1,0,-1
407 0 m 1,5,-1
 127 0 l 1,6,7
 87 10 87 10 77 50 c 1,8,-1
 157 80 l 1,9,-1
 327 80 l 1,10,-1
 407 0 l 1,5,-1
77 70 m 1,11,-1
 77 330 l 1,12,-1
 97 350 l 1,13,-1
 157 290 l 1,14,-1
 157 100 l 1,15,-1
 77 70 l 1,11,-1
397 640 m 1,16,-1
 158 640 l 1,17,-1
 78 670 l 1,18,19
 88 710 88 710 128 720 c 1,20,-1
 427 720 l 1,21,-1
 397 640 l 1,16,-1
157 620 m 1,22,-1
 157 430 l 1,23,-1
 97 370 l 1,24,-1
 77 390 l 1,25,-1
 77 650 l 1,26,-1
 157 620 l 1,22,-1
417 430 m 1,27,-1
 417 640 l 1,28,-1
 447 720 l 1,29,30
 487 710 487 710 497 670 c 1,31,-1
 497 390 l 1,32,-1
 477 370 l 1,33,-1
 417 430 l 1,27,-1
317 180 m 1,34,-1
 377 180 l 1,35,-1
 507 50 l 1,36,-1
 507 -10 l 1,37,-1
 447 -10 l 1,38,-1
 317 120 l 1,39,-1
 317 180 l 1,34,-1
EndSplineSet
Validated: 1
EndChar

StartChar: R
Encoding: 82 82 53
Width: 579
Flags: W
LayerCount: 2
Fore
SplineSet
417 400 m 1,0,-1
 457 360 l 1,1,-1
 417 320 l 1,2,-1
 157 320 l 1,3,-1
 117 360 l 1,4,-1
 157 400 l 1,5,-1
 417 400 l 1,0,-1
177 300 m 1,6,-1
 237 300 l 1,7,-1
 497 40 l 1,8,9
 477 0 477 0 417 0 c 1,10,-1
 177 240 l 1,11,-1
 177 300 l 1,6,-1
157 290 m 1,12,-1
 157 80 l 1,13,-1
 127 0 l 1,14,15
 87 10 87 10 77 50 c 1,16,-1
 77 330 l 1,17,-1
 97 350 l 1,18,-1
 157 290 l 1,12,-1
397 640 m 1,19,-1
 158 640 l 1,20,-1
 78 670 l 1,21,22
 88 710 88 710 128 720 c 1,23,-1
 427 720 l 1,24,-1
 397 640 l 1,19,-1
417 430 m 1,25,-1
 417 640 l 1,26,-1
 447 720 l 1,27,28
 487 710 487 710 497 670 c 1,29,-1
 497 390 l 1,30,-1
 477 370 l 1,31,-1
 417 430 l 1,25,-1
157 620 m 1,32,-1
 157 430 l 1,33,-1
 97 370 l 1,34,-1
 77 390 l 1,35,-1
 77 650 l 1,36,-1
 157 620 l 1,32,-1
EndSplineSet
Validated: 1
EndChar

StartChar: S
Encoding: 83 83 54
Width: 579
Flags: W
LayerCount: 2
Fore
SplineSet
415 400 m 1,0,-1
 455 360 l 1,1,-1
 415 320 l 1,2,-1
 155 320 l 1,3,-1
 115 360 l 1,4,-1
 155 400 l 1,5,-1
 415 400 l 1,0,-1
475 350 m 1,6,-1
 495 330 l 1,7,-1
 495 50 l 1,8,9
 485 10 485 10 445 0 c 1,10,-1
 415 80 l 1,11,-1
 415 290 l 1,12,-1
 475 350 l 1,6,-1
425 0 m 1,13,-1
 125 0 l 1,14,15
 85 10 85 10 75 50 c 1,16,-1
 155 80 l 1,17,-1
 395 80 l 1,18,-1
 425 0 l 1,13,-1
155 620 m 1,19,-1
 155 430 l 1,20,-1
 95 370 l 1,21,-1
 75 390 l 1,22,-1
 75 650 l 1,23,-1
 155 620 l 1,19,-1
156 640 m 1,24,-1
 76 670 l 1,25,26
 86 710 86 710 126 720 c 1,27,-1
 445 720 l 1,28,29
 485 710 485 710 495 670 c 1,30,-1
 415 640 l 1,31,-1
 156 640 l 1,24,-1
EndSplineSet
Validated: 1
EndChar

StartChar: T
Encoding: 84 84 55
Width: 579
Flags: W
LayerCount: 2
Fore
SplineSet
260 350 m 1,0,-1
 300 310 l 1,1,-1
 300 50 l 1,2,3
 290 10 290 10 250 0 c 1,4,-1
 220 80 l 1,5,-1
 220 310 l 1,6,-1
 260 350 l 1,0,-1
220 410 m 1,7,-1
 220 620 l 1,8,-1
 300 620 l 1,9,-1
 300 410 l 1,10,-1
 260 370 l 1,11,-1
 220 410 l 1,7,-1
131 640 m 1,12,-1
 51 670 l 1,13,14
 61 710 61 710 101 720 c 1,15,-1
 420 720 l 1,16,17
 460 710 460 710 470 670 c 1,18,-1
 390 640 l 1,19,-1
 131 640 l 1,12,-1
EndSplineSet
Validated: 1
EndChar

StartChar: U
Encoding: 85 85 56
Width: 579
Flags: W
LayerCount: 2
Fore
SplineSet
477 350 m 1,0,-1
 497 330 l 1,1,-1
 497 50 l 1,2,3
 487 10 487 10 447 0 c 1,4,-1
 417 80 l 1,5,-1
 417 290 l 1,6,-1
 477 350 l 1,0,-1
427 0 m 1,7,-1
 127 0 l 1,8,9
 87 10 87 10 77 50 c 1,10,-1
 157 80 l 1,11,-1
 397 80 l 1,12,-1
 427 0 l 1,7,-1
77 70 m 1,13,-1
 77 330 l 1,14,-1
 97 350 l 1,15,-1
 157 290 l 1,16,-1
 157 100 l 1,17,-1
 77 70 l 1,13,-1
417 430 m 1,18,-1
 417 640 l 1,19,-1
 447 720 l 1,20,21
 487 710 487 710 497 670 c 1,22,-1
 497 390 l 1,23,-1
 477 370 l 1,24,-1
 417 430 l 1,18,-1
97 360 m 1,25,-1
 77 380 l 1,26,-1
 77 660 l 1,27,28
 87 700 87 700 127 710 c 1,29,-1
 157 630 l 1,30,-1
 157 420 l 1,31,-1
 97 360 l 1,25,-1
EndSplineSet
Validated: 1
EndChar

StartChar: V
Encoding: 86 86 57
Width: 579
Flags: W
LayerCount: 2
Fore
SplineSet
94 360 m 1,0,-1
 74 380 l 1,1,-1
 74 660 l 1,2,3
 84 700 84 700 124 710 c 1,4,-1
 154 630 l 1,5,-1
 154 420 l 1,6,-1
 94 360 l 1,0,-1
414 420 m 1,7,-1
 414 630 l 1,8,-1
 444 710 l 1,9,10
 484 700 484 700 494 660 c 1,11,-1
 494 380 l 1,12,-1
 474 360 l 1,13,-1
 414 420 l 1,7,-1
274 120 m 1,14,-1
 274 0 l 1,15,-1
 74 260 l 1,16,-1
 74 320 l 1,17,-1
 94 340 l 1,18,-1
 154 280 l 1,19,-1
 274 120 l 1,14,-1
414 280 m 1,20,-1
 474 340 l 1,21,-1
 494 320 l 1,22,-1
 494 260 l 1,23,-1
 294 0 l 1,24,-1
 294 120 l 1,25,-1
 414 280 l 1,20,-1
EndSplineSet
Validated: 1
EndChar

StartChar: W
Encoding: 87 87 58
Width: 579
Flags: W
LayerCount: 2
Fore
SplineSet
327 100 m 1,0,-1
 247 100 l 1,1,-1
 247 330 l 1,2,-1
 287 370 l 1,3,-1
 327 330 l 1,4,-1
 327 100 l 1,0,-1
417 430 m 1,5,-1
 417 640 l 1,6,-1
 447 720 l 1,7,8
 487 710 487 710 497 670 c 1,9,-1
 497 390 l 1,10,-1
 477 370 l 1,11,-1
 417 430 l 1,5,-1
427 0 m 1,12,-1
 128 0 l 1,13,14
 88 10 88 10 78 50 c 1,15,-1
 158 80 l 1,16,-1
 397 80 l 1,17,-1
 427 0 l 1,12,-1
77 70 m 1,18,-1
 77 330 l 1,19,-1
 97 350 l 1,20,-1
 157 290 l 1,21,-1
 157 100 l 1,22,-1
 77 70 l 1,18,-1
477 350 m 1,23,-1
 497 330 l 1,24,-1
 497 50 l 1,25,26
 487 10 487 10 447 0 c 1,27,-1
 417 80 l 1,28,-1
 417 290 l 1,29,-1
 477 350 l 1,23,-1
97 370 m 1,30,-1
 77 390 l 1,31,-1
 77 670 l 1,32,33
 87 710 87 710 127 720 c 1,34,-1
 157 640 l 1,35,-1
 157 430 l 1,36,-1
 97 370 l 1,30,-1
EndSplineSet
Validated: 1
EndChar

StartChar: X
Encoding: 88 88 59
Width: 579
Flags: W
LayerCount: 2
Fore
SplineSet
280 350 m 1,0,-1
 325 350 l 1,1,-1
 479 40 l 1,2,3
 459 0 459 0 399 0 c 1,4,-1
 280 242 l 1,5,-1
 280 350 l 1,0,-1
281 478 m 1,6,-1
 400 720 l 1,7,8
 460 720 460 720 480 680 c 1,9,-1
 326 370 l 1,10,-1
 281 370 l 1,11,-1
 281 478 l 1,6,-1
259 242 m 1,12,-1
 140 0 l 1,13,14
 80 0 80 0 60 40 c 1,15,-1
 214 350 l 1,16,-1
 259 350 l 1,17,-1
 259 242 l 1,12,-1
260 370 m 1,18,-1
 215 370 l 1,19,-1
 61 680 l 1,20,21
 81 720 81 720 141 720 c 1,22,-1
 260 477 l 1,23,-1
 260 370 l 1,18,-1
EndSplineSet
Validated: 1
EndChar

StartChar: Y
Encoding: 89 89 60
Width: 579
Flags: W
LayerCount: 2
Fore
SplineSet
415 400 m 1,0,-1
 455 360 l 1,1,-1
 415 320 l 1,2,-1
 155 320 l 1,3,-1
 115 360 l 1,4,-1
 155 400 l 1,5,-1
 415 400 l 1,0,-1
475 350 m 1,6,-1
 495 330 l 1,7,-1
 495 50 l 1,8,9
 485 10 485 10 445 0 c 1,10,-1
 415 80 l 1,11,-1
 415 290 l 1,12,-1
 475 350 l 1,6,-1
425 0 m 1,13,-1
 125 0 l 1,14,15
 85 10 85 10 75 50 c 1,16,-1
 155 80 l 1,17,-1
 395 80 l 1,18,-1
 425 0 l 1,13,-1
155 650 m 1,19,-1
 155 430 l 1,20,-1
 95 370 l 1,21,-1
 75 390 l 1,22,-1
 75 680 l 1,23,-1
 155 650 l 1,19,-1
415 430 m 1,24,-1
 415 640 l 1,25,-1
 445 720 l 1,26,27
 485 710 485 710 495 670 c 1,28,-1
 495 390 l 1,29,-1
 475 370 l 1,30,-1
 415 430 l 1,24,-1
EndSplineSet
Validated: 1
EndChar

StartChar: Z
Encoding: 90 90 61
Width: 579
Flags: W
LayerCount: 2
Fore
SplineSet
439 0 m 1,0,-1
 159 0 l 1,1,-1
 199 80 l 1,2,-1
 409 80 l 1,3,-1
 439 0 l 1,0,-1
339 640 m 1,4,-1
 140 640 l 1,5,-1
 60 670 l 1,6,7
 70 710 70 710 110 720 c 1,8,-1
 379 720 l 1,9,-1
 339 640 l 1,4,-1
269 430 m 1,10,-1
 399 720 l 1,11,12
 459 720 459 720 479 680 c 1,13,-1
 329 370 l 1,14,-1
 269 370 l 1,15,-1
 269 430 l 1,10,-1
279 290 m 1,16,-1
 139 0 l 1,17,18
 79 0 79 0 59 40 c 1,19,-1
 219 350 l 1,20,-1
 279 350 l 1,21,-1
 279 290 l 1,16,-1
EndSplineSet
Validated: 1
EndChar

StartChar: bracketleft
Encoding: 91 91 62
Width: 579
Flags: W
LayerCount: 2
Fore
SplineSet
79 70 m 1,0,-1
 79 330 l 1,1,-1
 99 350 l 1,2,-1
 159 290 l 1,3,-1
 159 100 l 1,4,-1
 79 70 l 1,0,-1
229 640 m 1,5,-1
 160 640 l 1,6,-1
 80 670 l 1,7,8
 90 710 90 710 130 720 c 1,9,-1
 269 720 l 1,10,-1
 289 700 l 1,11,-1
 229 640 l 1,5,-1
159 620 m 1,12,-1
 159 430 l 1,13,-1
 99 370 l 1,14,-1
 79 390 l 1,15,-1
 79 650 l 1,16,-1
 159 620 l 1,12,-1
289 20 m 1,17,-1
 269 0 l 1,18,-1
 130 0 l 1,19,20
 90 10 90 10 80 50 c 1,21,-1
 160 80 l 1,22,-1
 229 80 l 1,23,-1
 289 20 l 1,17,-1
EndSplineSet
Validated: 1
EndChar

StartChar: backslash
Encoding: 92 92 63
Width: 579
Flags: W
LayerCount: 2
Fore
SplineSet
272 350 m 1,0,-1
 317 350 l 1,1,-1
 471 40 l 1,2,3
 451 0 451 0 391 0 c 1,4,-1
 272 242 l 1,5,-1
 272 350 l 1,0,-1
252 370 m 1,6,-1
 207 370 l 1,7,-1
 53 680 l 1,8,9
 73 720 73 720 133 720 c 1,10,-1
 252 477 l 1,11,-1
 252 370 l 1,6,-1
EndSplineSet
Validated: 1
EndChar

StartChar: bracketright
Encoding: 93 93 64
Width: 579
Flags: W
LayerCount: 2
Fore
SplineSet
244 350 m 1,0,-1
 264 330 l 1,1,-1
 264 50 l 1,2,3
 254 10 254 10 214 0 c 1,4,-1
 184 80 l 1,5,-1
 184 290 l 1,6,-1
 244 350 l 1,0,-1
164 640 m 1,7,-1
 114 640 l 1,8,-1
 54 700 l 1,9,-1
 74 720 l 1,10,-1
 194 720 l 1,11,-1
 164 640 l 1,7,-1
184 430 m 1,12,-1
 184 640 l 1,13,-1
 214 720 l 1,14,15
 254 710 254 710 264 670 c 1,16,-1
 264 390 l 1,17,-1
 244 370 l 1,18,-1
 184 430 l 1,12,-1
194 0 m 1,19,-1
 74 0 l 1,20,-1
 54 20 l 1,21,-1
 114 80 l 1,22,-1
 164 80 l 1,23,-1
 194 0 l 1,19,-1
EndSplineSet
Validated: 1
EndChar

StartChar: asciicircum
Encoding: 94 94 65
Width: 579
Flags: W
LayerCount: 2
Fore
SplineSet
283 610 m 1,0,-1
 283 720 l 1,1,-1
 483 520 l 1,2,-1
 483 480 l 1,3,-1
 444 450 l 1,4,-1
 283 610 l 1,0,-1
103 450 m 1,5,-1
 64 480 l 1,6,-1
 64 520 l 1,7,-1
 264 720 l 1,8,-1
 263 610 l 1,9,-1
 103 450 l 1,5,-1
EndSplineSet
Validated: 1
EndChar

StartChar: underscore
Encoding: 95 95 66
Width: 579
Flags: W
LayerCount: 2
Fore
SplineSet
417 80 m 1,0,-1
 497 50 l 1,1,2
 487 10 487 10 447 0 c 1,3,-1
 128 0 l 1,4,5
 88 10 88 10 78 50 c 1,6,-1
 158 80 l 1,7,-1
 417 80 l 1,0,-1
EndSplineSet
Validated: 1
EndChar

StartChar: grave
Encoding: 96 96 67
Width: 579
Flags: W
LayerCount: 2
Fore
SplineSet
245 610 m 1,0,-1
 245 570 l 1,1,-1
 205 560 l 1,2,-1
 65 700 l 1,3,-1
 75 740 l 1,4,-1
 115 740 l 1,5,-1
 245 610 l 1,0,-1
EndSplineSet
Validated: 1
EndChar

StartChar: a
Encoding: 97 97 68
Width: 579
Flags: W
LayerCount: 2
Fore
SplineSet
417 400 m 1,0,-1
 457 360 l 1,1,-1
 417 320 l 1,2,-1
 157 320 l 1,3,-1
 117 360 l 1,4,-1
 157 400 l 1,5,-1
 417 400 l 1,0,-1
477 350 m 1,6,-1
 497 330 l 1,7,-1
 497 50 l 1,8,9
 487 10 487 10 447 0 c 1,10,-1
 417 80 l 1,11,-1
 417 290 l 1,12,-1
 477 350 l 1,6,-1
397 640 m 1,13,-1
 158 640 l 1,14,-1
 78 670 l 1,15,16
 88 710 88 710 128 720 c 1,17,-1
 427 720 l 1,18,-1
 397 640 l 1,13,-1
157 620 m 1,19,-1
 157 430 l 1,20,-1
 97 370 l 1,21,-1
 77 390 l 1,22,-1
 77 650 l 1,23,-1
 157 620 l 1,19,-1
417 430 m 1,24,-1
 417 640 l 1,25,-1
 447 720 l 1,26,27
 487 710 487 710 497 670 c 1,28,-1
 497 390 l 1,29,-1
 477 370 l 1,30,-1
 417 430 l 1,24,-1
157 290 m 1,31,-1
 157 80 l 1,32,-1
 127 0 l 1,33,34
 87 10 87 10 77 50 c 1,35,-1
 77 330 l 1,36,-1
 97 350 l 1,37,-1
 157 290 l 1,31,-1
EndSplineSet
Validated: 1
EndChar

StartChar: b
Encoding: 98 98 69
Width: 579
Flags: W
LayerCount: 2
Fore
SplineSet
420 400 m 1,0,-1
 460 360 l 1,1,-1
 420 320 l 1,2,-1
 160 320 l 1,3,-1
 120 360 l 1,4,-1
 160 400 l 1,5,-1
 420 400 l 1,0,-1
80 70 m 1,6,-1
 80 330 l 1,7,-1
 100 350 l 1,8,-1
 160 290 l 1,9,-1
 160 100 l 1,10,-1
 80 70 l 1,6,-1
400 640 m 1,11,-1
 160 640 l 1,12,-1
 80 670 l 1,13,-1
 80 720 l 1,14,-1
 400 720 l 1,15,-1
 440 680 l 1,16,-1
 400 640 l 1,11,-1
160 620 m 1,17,-1
 160 430 l 1,18,-1
 100 370 l 1,19,-1
 80 390 l 1,20,-1
 80 650 l 1,21,-1
 160 620 l 1,17,-1
420 430 m 1,22,-1
 420 640 l 1,23,-1
 450 670 l 1,24,-1
 500 620 l 1,25,-1
 500 390 l 1,26,-1
 480 370 l 1,27,-1
 420 430 l 1,22,-1
480 350 m 1,28,-1
 500 330 l 1,29,-1
 500 100 l 1,30,-1
 450 50 l 1,31,-1
 420 80 l 1,32,-1
 420 290 l 1,33,-1
 480 350 l 1,28,-1
439 40 m 1,34,-1
 399 0 l 1,35,-1
 80 0 l 1,36,-1
 80 50 l 1,37,-1
 160 80 l 1,38,-1
 399 80 l 1,39,-1
 439 40 l 1,34,-1
EndSplineSet
Validated: 1
EndChar

StartChar: c
Encoding: 99 99 70
Width: 579
Flags: W
LayerCount: 2
Fore
SplineSet
457 0 m 1,0,-1
 127 0 l 1,1,2
 87 10 87 10 77 50 c 1,3,-1
 157 80 l 1,4,-1
 427 80 l 1,5,-1
 457 0 l 1,0,-1
77 70 m 1,6,-1
 77 330 l 1,7,-1
 97 350 l 1,8,-1
 157 290 l 1,9,-1
 157 100 l 1,10,-1
 77 70 l 1,6,-1
427 640 m 1,11,-1
 158 640 l 1,12,-1
 78 670 l 1,13,14
 88 710 88 710 128 720 c 1,15,-1
 457 720 l 1,16,-1
 427 640 l 1,11,-1
157 620 m 1,17,-1
 157 430 l 1,18,-1
 97 370 l 1,19,-1
 77 390 l 1,20,-1
 77 650 l 1,21,-1
 157 620 l 1,17,-1
EndSplineSet
Validated: 1
EndChar

StartChar: d
Encoding: 100 100 71
Width: 579
Flags: W
LayerCount: 2
Fore
SplineSet
80 70 m 1,0,-1
 80 330 l 1,1,-1
 100 350 l 1,2,-1
 160 290 l 1,3,-1
 160 100 l 1,4,-1
 80 70 l 1,0,-1
400 640 m 1,5,-1
 160 640 l 1,6,-1
 80 670 l 1,7,-1
 80 720 l 1,8,-1
 400 720 l 1,9,-1
 440 680 l 1,10,-1
 400 640 l 1,5,-1
160 620 m 1,11,-1
 160 430 l 1,12,-1
 100 370 l 1,13,-1
 80 390 l 1,14,-1
 80 650 l 1,15,-1
 160 620 l 1,11,-1
420 430 m 1,16,-1
 420 640 l 1,17,-1
 450 670 l 1,18,-1
 500 620 l 1,19,-1
 500 390 l 1,20,-1
 480 370 l 1,21,-1
 420 430 l 1,16,-1
480 350 m 1,22,-1
 500 330 l 1,23,-1
 500 100 l 1,24,-1
 450 50 l 1,25,-1
 420 80 l 1,26,-1
 420 290 l 1,27,-1
 480 350 l 1,22,-1
439 40 m 1,28,-1
 399 0 l 1,29,-1
 80 0 l 1,30,-1
 80 50 l 1,31,-1
 160 80 l 1,32,-1
 399 80 l 1,33,-1
 439 40 l 1,28,-1
EndSplineSet
Validated: 1
EndChar

StartChar: e
Encoding: 101 101 72
Width: 579
Flags: W
LayerCount: 2
Fore
SplineSet
417 400 m 1,0,-1
 457 360 l 1,1,-1
 417 320 l 1,2,-1
 157 320 l 1,3,-1
 117 360 l 1,4,-1
 157 400 l 1,5,-1
 417 400 l 1,0,-1
457 0 m 1,6,-1
 127 0 l 1,7,8
 87 10 87 10 77 50 c 1,9,-1
 157 80 l 1,10,-1
 427 80 l 1,11,-1
 457 0 l 1,6,-1
77 70 m 1,12,-1
 77 330 l 1,13,-1
 97 350 l 1,14,-1
 157 290 l 1,15,-1
 157 100 l 1,16,-1
 77 70 l 1,12,-1
427 640 m 1,17,-1
 158 640 l 1,18,-1
 78 670 l 1,19,20
 88 710 88 710 128 720 c 1,21,-1
 457 720 l 1,22,-1
 427 640 l 1,17,-1
157 620 m 1,23,-1
 157 430 l 1,24,-1
 97 370 l 1,25,-1
 77 390 l 1,26,-1
 77 650 l 1,27,-1
 157 620 l 1,23,-1
EndSplineSet
Validated: 1
EndChar

StartChar: f
Encoding: 102 102 73
Width: 579
Flags: W
LayerCount: 2
Fore
SplineSet
417 400 m 1,0,-1
 457 360 l 1,1,-1
 417 320 l 1,2,-1
 157 320 l 1,3,-1
 117 360 l 1,4,-1
 157 400 l 1,5,-1
 417 400 l 1,0,-1
427 640 m 1,6,-1
 158 640 l 1,7,-1
 78 670 l 1,8,9
 88 710 88 710 128 720 c 1,10,-1
 457 720 l 1,11,-1
 427 640 l 1,6,-1
157 620 m 1,12,-1
 157 430 l 1,13,-1
 97 370 l 1,14,-1
 77 390 l 1,15,-1
 77 650 l 1,16,-1
 157 620 l 1,12,-1
157 290 m 1,17,-1
 157 80 l 1,18,-1
 127 0 l 1,19,20
 87 10 87 10 77 50 c 1,21,-1
 77 330 l 1,22,-1
 97 350 l 1,23,-1
 157 290 l 1,17,-1
EndSplineSet
Validated: 1
EndChar

StartChar: g
Encoding: 103 103 74
Width: 579
Flags: W
LayerCount: 2
Fore
SplineSet
417 400 m 1,0,-1
 457 360 l 1,1,-1
 417 320 l 1,2,-1
 327 320 l 1,3,-1
 287 360 l 1,4,-1
 327 400 l 1,5,-1
 417 400 l 1,0,-1
477 350 m 1,6,-1
 497 330 l 1,7,-1
 497 50 l 1,8,9
 487 10 487 10 447 0 c 1,10,-1
 417 80 l 1,11,-1
 417 290 l 1,12,-1
 477 350 l 1,6,-1
427 0 m 1,13,-1
 127 0 l 1,14,15
 87 10 87 10 77 50 c 1,16,-1
 157 80 l 1,17,-1
 397 80 l 1,18,-1
 427 0 l 1,13,-1
77 70 m 1,19,-1
 77 330 l 1,20,-1
 97 350 l 1,21,-1
 157 290 l 1,22,-1
 157 100 l 1,23,-1
 77 70 l 1,19,-1
427 640 m 1,24,-1
 158 640 l 1,25,-1
 78 670 l 1,26,27
 88 710 88 710 128 720 c 1,28,-1
 457 720 l 1,29,-1
 427 640 l 1,24,-1
157 620 m 1,30,-1
 157 430 l 1,31,-1
 97 370 l 1,32,-1
 77 390 l 1,33,-1
 77 650 l 1,34,-1
 157 620 l 1,30,-1
EndSplineSet
Validated: 1
EndChar

StartChar: h
Encoding: 104 104 75
Width: 579
Flags: W
LayerCount: 2
Fore
SplineSet
417 400 m 1,0,-1
 457 360 l 1,1,-1
 417 320 l 1,2,-1
 157 320 l 1,3,-1
 117 360 l 1,4,-1
 157 400 l 1,5,-1
 417 400 l 1,0,-1
477 350 m 1,6,-1
 497 330 l 1,7,-1
 497 50 l 1,8,9
 487 10 487 10 447 0 c 1,10,-1
 417 80 l 1,11,-1
 417 290 l 1,12,-1
 477 350 l 1,6,-1
417 430 m 1,13,-1
 417 640 l 1,14,-1
 447 720 l 1,15,16
 487 710 487 710 497 670 c 1,17,-1
 497 390 l 1,18,-1
 477 370 l 1,19,-1
 417 430 l 1,13,-1
157 290 m 1,20,-1
 157 80 l 1,21,-1
 127 0 l 1,22,23
 87 10 87 10 77 50 c 1,24,-1
 77 330 l 1,25,-1
 97 350 l 1,26,-1
 157 290 l 1,20,-1
97 360 m 1,27,-1
 77 380 l 1,28,-1
 77 660 l 1,29,30
 87 700 87 700 127 710 c 1,31,-1
 157 630 l 1,32,-1
 157 420 l 1,33,-1
 97 360 l 1,27,-1
EndSplineSet
Validated: 1
EndChar

StartChar: i
Encoding: 105 105 76
Width: 579
Flags: W
LayerCount: 2
Fore
SplineSet
74 430 m 1,0,-1
 74 640 l 1,1,-1
 104 720 l 1,2,3
 144 710 144 710 154 670 c 1,4,-1
 154 390 l 1,5,-1
 134 370 l 1,6,-1
 74 430 l 1,0,-1
134 360 m 1,7,-1
 154 340 l 1,8,-1
 154 60 l 1,9,10
 144 20 144 20 104 10 c 1,11,-1
 74 90 l 1,12,-1
 74 300 l 1,13,-1
 134 360 l 1,7,-1
EndSplineSet
Validated: 1
EndChar

StartChar: j
Encoding: 106 106 77
Width: 579
Flags: W
LayerCount: 2
Fore
SplineSet
471 350 m 1,0,-1
 491 330 l 1,1,-1
 491 50 l 1,2,3
 481 10 481 10 441 0 c 1,4,-1
 411 80 l 1,5,-1
 411 290 l 1,6,-1
 471 350 l 1,0,-1
421 0 m 1,7,-1
 121 0 l 1,8,9
 81 10 81 10 71 50 c 1,10,-1
 151 80 l 1,11,-1
 391 80 l 1,12,-1
 421 0 l 1,7,-1
71 70 m 1,13,-1
 71 330 l 1,14,-1
 91 350 l 1,15,-1
 151 290 l 1,16,-1
 151 100 l 1,17,-1
 71 70 l 1,13,-1
411 430 m 1,18,-1
 411 640 l 1,19,-1
 441 720 l 1,20,21
 481 710 481 710 491 670 c 1,22,-1
 491 390 l 1,23,-1
 471 370 l 1,24,-1
 411 430 l 1,18,-1
EndSplineSet
Validated: 1
EndChar

StartChar: k
Encoding: 107 107 78
Width: 579
Flags: W
LayerCount: 2
Fore
SplineSet
418 400 m 1,0,-1
 458 360 l 1,1,-1
 418 320 l 1,2,-1
 158 320 l 1,3,-1
 118 360 l 1,4,-1
 158 400 l 1,5,-1
 418 400 l 1,0,-1
478 350 m 1,6,-1
 498 330 l 1,7,-1
 498 50 l 1,8,9
 488 10 488 10 448 0 c 1,10,-1
 418 80 l 1,11,-1
 418 290 l 1,12,-1
 478 350 l 1,6,-1
178 480 m 1,13,-1
 418 720 l 1,14,15
 478 720 478 720 498 680 c 1,16,-1
 238 420 l 1,17,-1
 178 420 l 1,18,-1
 178 480 l 1,13,-1
158 290 m 1,19,-1
 158 80 l 1,20,-1
 128 0 l 1,21,22
 88 10 88 10 78 50 c 1,23,-1
 78 330 l 1,24,-1
 98 350 l 1,25,-1
 158 290 l 1,19,-1
98 370 m 1,26,-1
 78 390 l 1,27,-1
 78 670 l 1,28,29
 88 710 88 710 128 720 c 1,30,-1
 158 640 l 1,31,-1
 158 430 l 1,32,-1
 98 370 l 1,26,-1
EndSplineSet
Validated: 1
EndChar

StartChar: l
Encoding: 108 108 79
Width: 579
Flags: W
LayerCount: 2
Fore
SplineSet
158 290 m 1,0,-1
 158 80 l 1,1,-1
 128 0 l 1,2,3
 88 10 88 10 78 50 c 1,4,-1
 78 330 l 1,5,-1
 98 350 l 1,6,-1
 158 290 l 1,0,-1
178 80 m 1,7,-1
 418 80 l 1,8,-1
 498 50 l 1,9,10
 488 10 488 10 448 0 c 1,11,-1
 148 0 l 1,12,-1
 178 80 l 1,7,-1
98 370 m 1,13,-1
 78 390 l 1,14,-1
 78 670 l 1,15,16
 88 710 88 710 128 720 c 1,17,-1
 158 640 l 1,18,-1
 158 430 l 1,19,-1
 98 370 l 1,13,-1
EndSplineSet
Validated: 1
EndChar

StartChar: m
Encoding: 109 109 80
Width: 579
Flags: W
LayerCount: 2
Fore
SplineSet
327 390 m 1,0,-1
 287 350 l 1,1,-1
 247 390 l 1,2,-1
 247 620 l 1,3,-1
 327 620 l 1,4,-1
 327 390 l 1,0,-1
477 350 m 1,5,-1
 497 330 l 1,6,-1
 497 50 l 1,7,8
 487 10 487 10 447 0 c 1,9,-1
 417 80 l 1,10,-1
 417 290 l 1,11,-1
 477 350 l 1,5,-1
397 640 m 1,12,-1
 158 640 l 1,13,-1
 78 670 l 1,14,15
 88 710 88 710 128 720 c 1,16,-1
 427 720 l 1,17,-1
 397 640 l 1,12,-1
157 620 m 1,18,-1
 157 430 l 1,19,-1
 97 370 l 1,20,-1
 77 390 l 1,21,-1
 77 650 l 1,22,-1
 157 620 l 1,18,-1
417 430 m 1,23,-1
 417 640 l 1,24,-1
 447 720 l 1,25,26
 487 710 487 710 497 670 c 1,27,-1
 497 390 l 1,28,-1
 477 370 l 1,29,-1
 417 430 l 1,23,-1
157 290 m 1,30,-1
 157 80 l 1,31,-1
 127 0 l 1,32,33
 87 10 87 10 77 50 c 1,34,-1
 77 330 l 1,35,-1
 97 350 l 1,36,-1
 157 290 l 1,30,-1
EndSplineSet
Validated: 1
EndChar

StartChar: n
Encoding: 110 110 81
Width: 579
Flags: W
LayerCount: 2
Fore
SplineSet
157 290 m 1,0,-1
 157 80 l 1,1,-1
 127 0 l 1,2,3
 87 10 87 10 77 50 c 1,4,-1
 77 330 l 1,5,-1
 97 350 l 1,6,-1
 157 290 l 1,0,-1
397 420 m 1,7,-1
 327 420 l 1,8,-1
 177 570 l 1,9,-1
 177 630 l 1,10,-1
 237 630 l 1,11,-1
 397 470 l 1,12,-1
 397 420 l 1,7,-1
477 350 m 1,13,-1
 497 330 l 1,14,-1
 497 50 l 1,15,16
 487 10 487 10 447 0 c 1,17,-1
 417 80 l 1,18,-1
 417 290 l 1,19,-1
 477 350 l 1,13,-1
417 420 m 1,20,-1
 417 630 l 1,21,-1
 447 710 l 1,22,23
 487 700 487 700 497 660 c 1,24,-1
 497 380 l 1,25,-1
 477 360 l 1,26,-1
 417 420 l 1,20,-1
97 360 m 1,27,-1
 77 380 l 1,28,-1
 77 660 l 1,29,30
 87 700 87 700 127 710 c 1,31,-1
 157 630 l 1,32,-1
 157 420 l 1,33,-1
 97 360 l 1,27,-1
EndSplineSet
Validated: 1
EndChar

StartChar: o
Encoding: 111 111 82
Width: 579
Flags: W
LayerCount: 2
Fore
SplineSet
391 640 m 1,0,-1
 171 640 l 1,1,-1
 131 680 l 1,2,-1
 171 720 l 1,3,-1
 391 720 l 1,4,-1
 431 680 l 1,5,-1
 391 640 l 1,0,-1
411 430 m 1,6,-1
 411 640 l 1,7,-1
 441 670 l 1,8,-1
 491 620 l 1,9,-1
 491 390 l 1,10,-1
 471 370 l 1,11,-1
 411 430 l 1,6,-1
471 350 m 1,12,-1
 491 330 l 1,13,-1
 491 100 l 1,14,-1
 441 50 l 1,15,-1
 411 80 l 1,16,-1
 411 290 l 1,17,-1
 471 350 l 1,12,-1
91 370 m 1,18,-1
 71 390 l 1,19,-1
 71 620 l 1,20,-1
 121 670 l 1,21,-1
 151 640 l 1,22,-1
 151 430 l 1,23,-1
 91 370 l 1,18,-1
431 40 m 1,24,-1
 391 0 l 1,25,-1
 171 0 l 1,26,-1
 131 40 l 1,27,-1
 171 80 l 1,28,-1
 391 80 l 1,29,-1
 431 40 l 1,24,-1
151 290 m 1,30,-1
 151 80 l 1,31,-1
 121 50 l 1,32,-1
 71 100 l 1,33,-1
 71 330 l 1,34,-1
 91 350 l 1,35,-1
 151 290 l 1,30,-1
EndSplineSet
Validated: 1
EndChar

StartChar: p
Encoding: 112 112 83
Width: 579
Flags: W
LayerCount: 2
Fore
SplineSet
419 400 m 1,0,-1
 459 360 l 1,1,-1
 419 320 l 1,2,-1
 159 320 l 1,3,-1
 119 360 l 1,4,-1
 159 400 l 1,5,-1
 419 400 l 1,0,-1
399 640 m 1,6,-1
 159 640 l 1,7,-1
 79 670 l 1,8,-1
 79 720 l 1,9,-1
 399 720 l 1,10,-1
 439 680 l 1,11,-1
 399 640 l 1,6,-1
159 620 m 1,12,-1
 159 430 l 1,13,-1
 99 370 l 1,14,-1
 79 390 l 1,15,-1
 79 650 l 1,16,-1
 159 620 l 1,12,-1
419 430 m 1,17,-1
 419 640 l 1,18,-1
 449 670 l 1,19,-1
 499 620 l 1,20,-1
 499 390 l 1,21,-1
 479 370 l 1,22,-1
 419 430 l 1,17,-1
159 290 m 1,23,-1
 159 80 l 1,24,-1
 129 0 l 1,25,26
 89 10 89 10 79 50 c 1,27,-1
 79 330 l 1,28,-1
 99 350 l 1,29,-1
 159 290 l 1,23,-1
EndSplineSet
Validated: 1
EndChar

StartChar: q
Encoding: 113 113 84
Width: 579
Flags: W
LayerCount: 2
Fore
SplineSet
477 350 m 1,0,-1
 497 330 l 1,1,-1
 497 90 l 1,2,-1
 417 170 l 1,3,-1
 417 290 l 1,4,-1
 477 350 l 1,0,-1
407 0 m 1,5,-1
 127 0 l 1,6,7
 87 10 87 10 77 50 c 1,8,-1
 157 80 l 1,9,-1
 327 80 l 1,10,-1
 407 0 l 1,5,-1
77 70 m 1,11,-1
 77 330 l 1,12,-1
 97 350 l 1,13,-1
 157 290 l 1,14,-1
 157 100 l 1,15,-1
 77 70 l 1,11,-1
397 640 m 1,16,-1
 158 640 l 1,17,-1
 78 670 l 1,18,19
 88 710 88 710 128 720 c 1,20,-1
 427 720 l 1,21,-1
 397 640 l 1,16,-1
157 620 m 1,22,-1
 157 430 l 1,23,-1
 97 370 l 1,24,-1
 77 390 l 1,25,-1
 77 650 l 1,26,-1
 157 620 l 1,22,-1
417 430 m 1,27,-1
 417 640 l 1,28,-1
 447 720 l 1,29,30
 487 710 487 710 497 670 c 1,31,-1
 497 390 l 1,32,-1
 477 370 l 1,33,-1
 417 430 l 1,27,-1
317 180 m 1,34,-1
 377 180 l 1,35,-1
 507 50 l 1,36,-1
 507 -10 l 1,37,-1
 447 -10 l 1,38,-1
 317 120 l 1,39,-1
 317 180 l 1,34,-1
EndSplineSet
Validated: 1
EndChar

StartChar: r
Encoding: 114 114 85
Width: 579
Flags: W
LayerCount: 2
Fore
SplineSet
417 400 m 1,0,-1
 457 360 l 1,1,-1
 417 320 l 1,2,-1
 157 320 l 1,3,-1
 117 360 l 1,4,-1
 157 400 l 1,5,-1
 417 400 l 1,0,-1
177 300 m 1,6,-1
 237 300 l 1,7,-1
 497 40 l 1,8,9
 477 0 477 0 417 0 c 1,10,-1
 177 240 l 1,11,-1
 177 300 l 1,6,-1
157 290 m 1,12,-1
 157 80 l 1,13,-1
 127 0 l 1,14,15
 87 10 87 10 77 50 c 1,16,-1
 77 330 l 1,17,-1
 97 350 l 1,18,-1
 157 290 l 1,12,-1
397 640 m 1,19,-1
 158 640 l 1,20,-1
 78 670 l 1,21,22
 88 710 88 710 128 720 c 1,23,-1
 427 720 l 1,24,-1
 397 640 l 1,19,-1
417 430 m 1,25,-1
 417 640 l 1,26,-1
 447 720 l 1,27,28
 487 710 487 710 497 670 c 1,29,-1
 497 390 l 1,30,-1
 477 370 l 1,31,-1
 417 430 l 1,25,-1
157 620 m 1,32,-1
 157 430 l 1,33,-1
 97 370 l 1,34,-1
 77 390 l 1,35,-1
 77 650 l 1,36,-1
 157 620 l 1,32,-1
EndSplineSet
Validated: 1
EndChar

StartChar: s
Encoding: 115 115 86
Width: 579
Flags: W
LayerCount: 2
Fore
SplineSet
415 400 m 1,0,-1
 455 360 l 1,1,-1
 415 320 l 1,2,-1
 155 320 l 1,3,-1
 115 360 l 1,4,-1
 155 400 l 1,5,-1
 415 400 l 1,0,-1
475 350 m 1,6,-1
 495 330 l 1,7,-1
 495 50 l 1,8,9
 485 10 485 10 445 0 c 1,10,-1
 415 80 l 1,11,-1
 415 290 l 1,12,-1
 475 350 l 1,6,-1
425 0 m 1,13,-1
 125 0 l 1,14,15
 85 10 85 10 75 50 c 1,16,-1
 155 80 l 1,17,-1
 395 80 l 1,18,-1
 425 0 l 1,13,-1
155 620 m 1,19,-1
 155 430 l 1,20,-1
 95 370 l 1,21,-1
 75 390 l 1,22,-1
 75 650 l 1,23,-1
 155 620 l 1,19,-1
156 640 m 1,24,-1
 76 670 l 1,25,26
 86 710 86 710 126 720 c 1,27,-1
 445 720 l 1,28,29
 485 710 485 710 495 670 c 1,30,-1
 415 640 l 1,31,-1
 156 640 l 1,24,-1
EndSplineSet
Validated: 1
EndChar

StartChar: t
Encoding: 116 116 87
Width: 579
Flags: W
LayerCount: 2
Fore
SplineSet
260 350 m 1,0,-1
 300 310 l 1,1,-1
 300 50 l 1,2,3
 290 10 290 10 250 0 c 1,4,-1
 220 80 l 1,5,-1
 220 310 l 1,6,-1
 260 350 l 1,0,-1
220 410 m 1,7,-1
 220 620 l 1,8,-1
 300 620 l 1,9,-1
 300 410 l 1,10,-1
 260 370 l 1,11,-1
 220 410 l 1,7,-1
131 640 m 1,12,-1
 51 670 l 1,13,14
 61 710 61 710 101 720 c 1,15,-1
 420 720 l 1,16,17
 460 710 460 710 470 670 c 1,18,-1
 390 640 l 1,19,-1
 131 640 l 1,12,-1
EndSplineSet
Validated: 1
EndChar

StartChar: u
Encoding: 117 117 88
Width: 579
Flags: W
LayerCount: 2
Fore
SplineSet
477 350 m 1,0,-1
 497 330 l 1,1,-1
 497 50 l 1,2,3
 487 10 487 10 447 0 c 1,4,-1
 417 80 l 1,5,-1
 417 290 l 1,6,-1
 477 350 l 1,0,-1
427 0 m 1,7,-1
 127 0 l 1,8,9
 87 10 87 10 77 50 c 1,10,-1
 157 80 l 1,11,-1
 397 80 l 1,12,-1
 427 0 l 1,7,-1
77 70 m 1,13,-1
 77 330 l 1,14,-1
 97 350 l 1,15,-1
 157 290 l 1,16,-1
 157 100 l 1,17,-1
 77 70 l 1,13,-1
417 430 m 1,18,-1
 417 640 l 1,19,-1
 447 720 l 1,20,21
 487 710 487 710 497 670 c 1,22,-1
 497 390 l 1,23,-1
 477 370 l 1,24,-1
 417 430 l 1,18,-1
97 360 m 1,25,-1
 77 380 l 1,26,-1
 77 660 l 1,27,28
 87 700 87 700 127 710 c 1,29,-1
 157 630 l 1,30,-1
 157 420 l 1,31,-1
 97 360 l 1,25,-1
EndSplineSet
Validated: 1
EndChar

StartChar: v
Encoding: 118 118 89
Width: 579
Flags: W
LayerCount: 2
Fore
SplineSet
94 360 m 1,0,-1
 74 380 l 1,1,-1
 74 660 l 1,2,3
 84 700 84 700 124 710 c 1,4,-1
 154 630 l 1,5,-1
 154 420 l 1,6,-1
 94 360 l 1,0,-1
414 420 m 1,7,-1
 414 630 l 1,8,-1
 444 710 l 1,9,10
 484 700 484 700 494 660 c 1,11,-1
 494 380 l 1,12,-1
 474 360 l 1,13,-1
 414 420 l 1,7,-1
274 120 m 1,14,-1
 274 0 l 1,15,-1
 74 260 l 1,16,-1
 74 320 l 1,17,-1
 94 340 l 1,18,-1
 154 280 l 1,19,-1
 274 120 l 1,14,-1
414 280 m 1,20,-1
 474 340 l 1,21,-1
 494 320 l 1,22,-1
 494 260 l 1,23,-1
 294 0 l 1,24,-1
 294 120 l 1,25,-1
 414 280 l 1,20,-1
EndSplineSet
Validated: 1
EndChar

StartChar: w
Encoding: 119 119 90
Width: 579
Flags: W
LayerCount: 2
Fore
SplineSet
327 100 m 1,0,-1
 247 100 l 1,1,-1
 247 330 l 1,2,-1
 287 370 l 1,3,-1
 327 330 l 1,4,-1
 327 100 l 1,0,-1
417 430 m 1,5,-1
 417 640 l 1,6,-1
 447 720 l 1,7,8
 487 710 487 710 497 670 c 1,9,-1
 497 390 l 1,10,-1
 477 370 l 1,11,-1
 417 430 l 1,5,-1
427 0 m 1,12,-1
 128 0 l 1,13,14
 88 10 88 10 78 50 c 1,15,-1
 158 80 l 1,16,-1
 397 80 l 1,17,-1
 427 0 l 1,12,-1
77 70 m 1,18,-1
 77 330 l 1,19,-1
 97 350 l 1,20,-1
 157 290 l 1,21,-1
 157 100 l 1,22,-1
 77 70 l 1,18,-1
477 350 m 1,23,-1
 497 330 l 1,24,-1
 497 50 l 1,25,26
 487 10 487 10 447 0 c 1,27,-1
 417 80 l 1,28,-1
 417 290 l 1,29,-1
 477 350 l 1,23,-1
97 370 m 1,30,-1
 77 390 l 1,31,-1
 77 670 l 1,32,33
 87 710 87 710 127 720 c 1,34,-1
 157 640 l 1,35,-1
 157 430 l 1,36,-1
 97 370 l 1,30,-1
EndSplineSet
Validated: 1
EndChar

StartChar: x
Encoding: 120 120 91
Width: 579
Flags: W
LayerCount: 2
Fore
SplineSet
280 350 m 1,0,-1
 325 350 l 1,1,-1
 479 40 l 1,2,3
 459 0 459 0 399 0 c 1,4,-1
 280 242 l 1,5,-1
 280 350 l 1,0,-1
281 478 m 1,6,-1
 400 720 l 1,7,8
 460 720 460 720 480 680 c 1,9,-1
 326 370 l 1,10,-1
 281 370 l 1,11,-1
 281 478 l 1,6,-1
259 242 m 1,12,-1
 140 0 l 1,13,14
 80 0 80 0 60 40 c 1,15,-1
 214 350 l 1,16,-1
 259 350 l 1,17,-1
 259 242 l 1,12,-1
260 370 m 1,18,-1
 215 370 l 1,19,-1
 61 680 l 1,20,21
 81 720 81 720 141 720 c 1,22,-1
 260 477 l 1,23,-1
 260 370 l 1,18,-1
EndSplineSet
Validated: 1
EndChar

StartChar: y
Encoding: 121 121 92
Width: 579
Flags: W
LayerCount: 2
Fore
SplineSet
415 400 m 1,0,-1
 455 360 l 1,1,-1
 415 320 l 1,2,-1
 155 320 l 1,3,-1
 115 360 l 1,4,-1
 155 400 l 1,5,-1
 415 400 l 1,0,-1
475 350 m 1,6,-1
 495 330 l 1,7,-1
 495 50 l 1,8,9
 485 10 485 10 445 0 c 1,10,-1
 415 80 l 1,11,-1
 415 290 l 1,12,-1
 475 350 l 1,6,-1
425 0 m 1,13,-1
 125 0 l 1,14,15
 85 10 85 10 75 50 c 1,16,-1
 155 80 l 1,17,-1
 395 80 l 1,18,-1
 425 0 l 1,13,-1
155 650 m 1,19,-1
 155 430 l 1,20,-1
 95 370 l 1,21,-1
 75 390 l 1,22,-1
 75 680 l 1,23,-1
 155 650 l 1,19,-1
415 430 m 1,24,-1
 415 640 l 1,25,-1
 445 720 l 1,26,27
 485 710 485 710 495 670 c 1,28,-1
 495 390 l 1,29,-1
 475 370 l 1,30,-1
 415 430 l 1,24,-1
EndSplineSet
Validated: 1
EndChar

StartChar: z
Encoding: 122 122 93
Width: 579
Flags: W
LayerCount: 2
Fore
SplineSet
439 0 m 1,0,-1
 159 0 l 1,1,-1
 199 80 l 1,2,-1
 409 80 l 1,3,-1
 439 0 l 1,0,-1
339 640 m 1,4,-1
 140 640 l 1,5,-1
 60 670 l 1,6,7
 70 710 70 710 110 720 c 1,8,-1
 379 720 l 1,9,-1
 339 640 l 1,4,-1
269 430 m 1,10,-1
 399 720 l 1,11,12
 459 720 459 720 479 680 c 1,13,-1
 329 370 l 1,14,-1
 269 370 l 1,15,-1
 269 430 l 1,10,-1
279 290 m 1,16,-1
 139 0 l 1,17,18
 79 0 79 0 59 40 c 1,19,-1
 219 350 l 1,20,-1
 279 350 l 1,21,-1
 279 290 l 1,16,-1
EndSplineSet
Validated: 1
EndChar

StartChar: braceleft
Encoding: 123 123 94
Width: 579
Flags: W
LayerCount: 2
Fore
SplineSet
163 70 m 1,0,-1
 163 290 l 1,1,-1
 223 350 l 1,2,-1
 243 330 l 1,3,-1
 243 100 l 1,4,-1
 163 70 l 1,0,-1
313 640 m 1,5,-1
 244 640 l 1,6,-1
 164 670 l 1,7,8
 174 710 174 710 214 720 c 1,9,-1
 353 720 l 1,10,-1
 373 700 l 1,11,-1
 313 640 l 1,5,-1
243 620 m 1,12,-1
 243 390 l 1,13,-1
 223 370 l 1,14,-1
 163 430 l 1,15,-1
 163 650 l 1,16,-1
 243 620 l 1,12,-1
373 20 m 1,17,-1
 353 0 l 1,18,-1
 214 0 l 1,19,20
 174 10 174 10 164 50 c 1,21,-1
 244 80 l 1,22,-1
 313 80 l 1,23,-1
 373 20 l 1,17,-1
153 400 m 1,24,-1
 193 360 l 1,25,-1
 153 320 l 1,26,-1
 83 320 l 1,27,-1
 43 360 l 1,28,-1
 83 400 l 1,29,-1
 153 400 l 1,24,-1
EndSplineSet
Validated: 1
EndChar

StartChar: bar
Encoding: 124 124 95
Width: 579
Flags: W
LayerCount: 2
Fore
SplineSet
159 50 m 1,0,1
 149 10 149 10 109 0 c 1,2,-1
 79 80 l 1,3,-1
 79 640 l 1,4,-1
 109 720 l 1,5,6
 149 710 149 710 159 670 c 1,7,-1
 159 50 l 1,0,1
EndSplineSet
Validated: 1
EndChar

StartChar: braceright
Encoding: 125 125 96
Width: 579
Flags: W
LayerCount: 2
Fore
SplineSet
183 100 m 1,0,-1
 183 330 l 1,1,-1
 203 350 l 1,2,-1
 263 290 l 1,3,-1
 263 70 l 1,4,-1
 183 100 l 1,0,-1
53 700 m 1,5,-1
 73 720 l 1,6,-1
 212 720 l 1,7,8
 252 710 252 710 262 670 c 1,9,-1
 182 640 l 1,10,-1
 113 640 l 1,11,-1
 53 700 l 1,5,-1
263 650 m 1,12,-1
 263 430 l 1,13,-1
 203 370 l 1,14,-1
 183 390 l 1,15,-1
 183 620 l 1,16,-1
 263 650 l 1,12,-1
113 80 m 1,17,-1
 182 80 l 1,18,-1
 262 50 l 1,19,20
 252 10 252 10 212 0 c 1,21,-1
 73 0 l 1,22,-1
 53 20 l 1,23,-1
 113 80 l 1,17,-1
343 400 m 1,24,-1
 383 360 l 1,25,-1
 343 320 l 1,26,-1
 273 320 l 1,27,-1
 233 360 l 1,28,-1
 273 400 l 1,29,-1
 343 400 l 1,24,-1
EndSplineSet
Validated: 1
EndChar

StartChar: asciitilde
Encoding: 126 126 97
Width: 579
Flags: W
LayerCount: 2
Fore
SplineSet
297 480 m 1,0,-1
 337 440 l 1,1,-1
 297 400 l 1,2,-1
 257 400 l 1,3,-1
 217 440 l 1,4,-1
 257 480 l 1,5,-1
 297 480 l 1,0,-1
137 479 m 1,6,-1
 177 439 l 1,7,-1
 137 399 l 1,8,-1
 97 399 l 1,9,-1
 57 439 l 1,10,-1
 97 479 l 1,11,-1
 137 479 l 1,6,-1
457 480 m 1,12,-1
 497 440 l 1,13,-1
 457 400 l 1,14,-1
 417 400 l 1,15,-1
 377 440 l 1,16,-1
 417 480 l 1,17,-1
 457 480 l 1,12,-1
217 540 m 1,18,-1
 257 500 l 1,19,-1
 217 460 l 1,20,-1
 177 460 l 1,21,-1
 137 500 l 1,22,-1
 177 540 l 1,23,-1
 217 540 l 1,18,-1
377 410 m 1,24,-1
 417 370 l 1,25,-1
 377 330 l 1,26,-1
 337 330 l 1,27,-1
 297 370 l 1,28,-1
 337 410 l 1,29,-1
 377 410 l 1,24,-1
EndSplineSet
Validated: 1
EndChar

StartChar: perthousand
Encoding: 8240 8240 98
Width: 579
Flags: W
LayerCount: 2
Fore
SplineSet
134 240 m 1,0,1
 131 240 131 240 129 240 c 128,-1,2
 127 240 127 240 126 240 c 128,-1,3
 125.13559322 239.983050847 125.13559322 239.983050847 124.285837403 239.983050847 c 0,4,5
 75 239.983050847 75 239.983050847 75 297 c 0,6,7
 75 298 75 298 75 299 c 6,8,-1
 264 489 l 5,9,-1
 294 489 l 1,10,-1
 294 399 l 1,11,-1
 134 240 l 1,0,1
155 640 m 1,12,-1
 145 640 l 1,13,-1
 65 670 l 1,14,15
 75 710 75 710 115 720 c 1,16,-1
 185 720 l 1,17,-1
 155 640 l 1,12,-1
145 620 m 1,18,-1
 145 560 l 1,19,-1
 115 480 l 1,20,21
 75 490 75 490 65 530 c 1,22,-1
 65 650 l 1,23,-1
 145 620 l 1,18,-1
165 560 m 1,24,-1
 175 560 l 1,25,-1
 255 530 l 1,26,27
 245 490 245 490 205 480 c 1,28,-1
 135 480 l 1,29,-1
 165 560 l 1,24,-1
175 580 m 1,30,-1
 175 640 l 1,31,-1
 205 720 l 1,32,33
 245 710 245 710 255 670 c 1,34,-1
 255 550 l 1,35,-1
 175 580 l 1,30,-1
455 160 m 1,36,-1
 445 160 l 1,37,-1
 365 190 l 1,38,39
 375 230 375 230 415 240 c 1,40,-1
 485 240 l 1,41,-1
 455 160 l 1,36,-1
446 140 m 1,42,-1
 446 80 l 1,43,-1
 416 0 l 1,44,45
 376 10 376 10 366 50 c 1,46,-1
 366 170 l 1,47,-1
 446 140 l 1,42,-1
465 80 m 1,48,-1
 475 80 l 1,49,-1
 555 50 l 1,50,51
 545 10 545 10 505 0 c 1,52,-1
 435 0 l 1,53,-1
 465 80 l 1,48,-1
475 100 m 1,54,-1
 475 160 l 1,55,-1
 505 240 l 1,56,57
 545 230 545 230 555 190 c 1,58,-1
 555 70 l 1,59,-1
 475 100 l 1,54,-1
245 100 m 1,60,-1
 245 160 l 1,61,-1
 275 240 l 1,62,63
 315 230 315 230 325 190 c 1,64,-1
 325 70 l 1,65,-1
 245 100 l 1,60,-1
235 79 m 1,66,-1
 245 79 l 1,67,-1
 325 49 l 1,68,69
 315 9 315 9 275 -1 c 1,70,-1
 205 -1 l 1,71,-1
 235 79 l 1,66,-1
215 140 m 1,72,-1
 215 80 l 1,73,-1
 185 0 l 1,74,75
 145 10 145 10 135 50 c 1,76,-1
 135 170 l 1,77,-1
 215 140 l 1,72,-1
225 160 m 1,78,-1
 215 160 l 1,79,-1
 135 190 l 1,80,81
 145 230 145 230 185 240 c 1,82,-1
 255 240 l 1,83,-1
 225 160 l 1,78,-1
465 690 m 1,84,85
 468 690 468 690 471 690 c 128,-1,86
 474 690 474 690 475 690 c 128,-1,87
 475.830508475 690.016949153 475.830508475 690.016949153 476.646940534 690.016949153 c 0,88,89
 524 690.016949153 524 690.016949153 524 633 c 0,90,91
 524 632 524 632 524 631 c 2,92,-1
 335 440 l 1,93,-1
 305 441 l 1,94,-1
 305 531 l 1,95,-1
 465 690 l 1,84,85
EndSplineSet
Validated: 524289
EndChar

StartChar: quoteleft
Encoding: 8216 8216 99
Width: 579
Flags: W
LayerCount: 2
Fore
SplineSet
154 520 m 1,0,-1
 74 520 l 1,1,-1
 74 680 l 1,2,-1
 114 720 l 1,3,-1
 154 680 l 1,4,-1
 154 520 l 1,0,-1
EndSplineSet
Validated: 1
EndChar

StartChar: quoteright
Encoding: 8217 8217 100
Width: 579
Flags: W
LayerCount: 2
Fore
SplineSet
153 560 m 1,0,-1
 113 520 l 1,1,-1
 73 560 l 1,2,-1
 73 720 l 1,3,-1
 153 720 l 1,4,-1
 153 560 l 1,0,-1
EndSplineSet
Validated: 1
EndChar

StartChar: quotedblleft
Encoding: 8220 8220 101
Width: 579
Flags: W
LayerCount: 2
Fore
SplineSet
154 521 m 1,0,-1
 74 521 l 1,1,-1
 74 681 l 1,2,-1
 114 721 l 1,3,-1
 154 681 l 1,4,-1
 154 521 l 1,0,-1
314 520 m 1,5,-1
 234 520 l 1,6,-1
 234 680 l 1,7,-1
 274 720 l 1,8,-1
 314 680 l 1,9,-1
 314 520 l 1,5,-1
EndSplineSet
Validated: 1
EndChar

StartChar: quotedblright
Encoding: 8221 8221 102
Width: 579
Flags: W
LayerCount: 2
Fore
SplineSet
153 560 m 1,0,-1
 113 520 l 1,1,-1
 73 560 l 1,2,-1
 73 720 l 1,3,-1
 153 720 l 1,4,-1
 153 560 l 1,0,-1
314 561 m 1,5,-1
 274 521 l 1,6,-1
 234 561 l 1,7,-1
 234 721 l 1,8,-1
 314 721 l 1,9,-1
 314 561 l 1,5,-1
EndSplineSet
Validated: 1
EndChar

StartChar: bullet
Encoding: 8226 8226 103
Width: 579
Flags: W
LayerCount: 2
Fore
SplineSet
216 220 m 256,0,1
 156 220 156 220 113.5 262.5 c 128,-1,2
 71 305 71 305 71 365 c 256,3,4
 71 425 71 425 113.5 467.5 c 128,-1,5
 156 510 156 510 216 510 c 256,6,7
 276 510 276 510 318.5 467.5 c 128,-1,8
 361 425 361 425 361 365 c 256,9,10
 361 305 361 305 318.5 262.5 c 128,-1,11
 276 220 276 220 216 220 c 256,0,1
EndSplineSet
Validated: 1
EndChar

StartChar: endash
Encoding: 8211 8211 104
Width: 579
Flags: W
LayerCount: 2
Fore
SplineSet
469 400 m 1,0,-1
 509 360 l 1,1,-1
 469 320 l 1,2,-1
 109 320 l 1,3,-1
 69 360 l 1,4,-1
 109 400 l 1,5,-1
 469 400 l 1,0,-1
EndSplineSet
Validated: 1
EndChar

StartChar: emdash
Encoding: 8212 8212 105
Width: 579
Flags: W
LayerCount: 2
Fore
SplineSet
509 400 m 1,0,-1
 549 360 l 1,1,-1
 509 320 l 1,2,-1
 109 320 l 1,3,-1
 69 360 l 1,4,-1
 109 400 l 1,5,-1
 509 400 l 1,0,-1
EndSplineSet
Validated: 1
EndChar

StartChar: copyright
Encoding: 169 169 106
Width: 579
Flags: W
LayerCount: 2
Fore
SplineSet
491 0 m 1,0,-1
 131 0 l 1,1,2
 91 10 91 10 81 50 c 1,3,-1
 161 80 l 1,4,-1
 461 80 l 1,5,-1
 491 0 l 1,0,-1
461 640 m 1,6,-1
 162 640 l 1,7,-1
 82 670 l 1,8,9
 92 710 92 710 132 720 c 1,10,-1
 491 720 l 1,11,-1
 461 640 l 1,6,-1
161 100 m 1,12,-1
 81 70 l 1,13,-1
 81 650 l 1,14,-1
 161 620 l 1,15,-1
 161 100 l 1,12,-1
561 50 m 1,16,17
 551 10 551 10 511 0 c 1,18,-1
 481 80 l 1,19,-1
 481 640 l 1,20,-1
 511 720 l 1,21,22
 551 710 551 710 561 670 c 1,23,-1
 561 50 l 1,16,17
411 480 m 1,24,-1
 281 480 l 1,25,-1
 201 510 l 1,26,27
 211 550 211 550 251 560 c 1,28,-1
 441 560 l 1,29,-1
 411 480 l 1,24,-1
281 460 m 1,30,-1
 281 240 l 1,31,-1
 251 160 l 1,32,33
 211 170 211 170 201 210 c 1,34,-1
 201 490 l 1,35,-1
 281 460 l 1,30,-1
301 240 m 1,36,-1
 361 240 l 1,37,-1
 441 210 l 1,38,39
 431 170 431 170 391 160 c 1,40,-1
 271 160 l 1,41,-1
 301 240 l 1,36,-1
EndSplineSet
Validated: 1
EndChar
